<svg xmlns="http://www.w3.org/2000/svg" viewBox="0 0 512 512"><defs><style>.cls-1{isolation:isolate;}.cls-2{fill:#00324d;}.cls-3{fill:#ffce40;}.cls-4{fill:#385c57;}.cls-5{fill:#82def0;}.cls-6{fill:#cb7766;}.cls-7,.cls-9{fill:#fff;}.cls-8{fill:#f2f2f2;}.cls-9{mix-blend-mode:screen;}</style></defs><g class="cls-1"><g id="Capa_1" data-name="Capa 1"><circle class="cls-2" cx="256" cy="256" r="256"/><path class="cls-3" d="M256,76.34a183,183,0,0,0-123.17,54.54A174.39,174.39,0,0,0,96,187.31q-13.12,32-13.23,68.69H256Z"/><path class="cls-4" d="M429.28,256a175.68,175.68,0,0,0-13.95-69.06,188,188,0,0,0-37.59-57.18,181.94,181.94,0,0,0-54.79-39A155.12,155.12,0,0,0,256.72,76.3l-.72,0V256Z"/><path class="cls-5" d="M256,256V435.7a164.79,164.79,0,0,0,68-14.1A171.24,171.24,0,0,0,378.81,383a187.45,187.45,0,0,0,36.88-56.81,177.15,177.15,0,0,0,13.6-69.43c0-.25,0-.49,0-.74Z"/><path class="cls-6" d="M82.72,256c0,.25,0,.49,0,.74q0,38.63,13.6,71.29a178.05,178.05,0,0,0,37.24,56.81,168.2,168.2,0,0,0,55.14,37.5A170.5,170.5,0,0,0,256,435.7V256Z"/><path class="cls-7" d="M63.89,187.22a7.83,7.83,0,0,1-2.35,3.47,7,7,0,0,1-3.84,1.57,11.55,11.55,0,0,1-5-.74,10.69,10.69,0,0,1-4.29-2.63,7.35,7.35,0,0,1-2-3.85,10.24,10.24,0,0,1,3.08-8.71,7,7,0,0,1,4.19-1.46l.21,4.45a3.34,3.34,0,0,0-2.27.46,3.58,3.58,0,0,0-1.3,1.8,3.68,3.68,0,0,0-.13,2.26,3.82,3.82,0,0,0,1.29,1.92,8.51,8.51,0,0,0,2.7,1.45,8.88,8.88,0,0,0,3.12.6,3.59,3.59,0,0,0,2.24-.71,4.2,4.2,0,0,0,1.36-2,4.65,4.65,0,0,0,.28-1.36,3.41,3.41,0,0,0-.15-1.21,2.59,2.59,0,0,0-.62-1,3,3,0,0,0-1.14-.68l-.26-.09-1.31,3.69-2.92-1,2.58-7.26,9,3.21-1,2.86-4-1.08.85-.47a5.07,5.07,0,0,1,2,2.79A6.31,6.31,0,0,1,63.89,187.22Z"/><path class="cls-7" d="M67.55,176.8l-12.34-5.37,1.55-3.57,2.73,1a5,5,0,0,1-1.56-2.28,3.66,3.66,0,0,1,.22-2.6,4.45,4.45,0,0,1,.41-.74,1.91,1.91,0,0,1,.42-.43l3.28,1.91a3.77,3.77,0,0,0-.42.53,5.77,5.77,0,0,0-.45.87,3.14,3.14,0,0,0-.26,1.47,2.7,2.7,0,0,0,.52,1.4,3.44,3.44,0,0,0,1.43,1.06l6.23,2.71Z"/><path class="cls-7" d="M74.14,163a5.24,5.24,0,0,1-1.48,1.85,3.43,3.43,0,0,1-2.07.71,5.71,5.71,0,0,1-2.7-.75l-8-4.09,2-3.93,7,3.61a2.58,2.58,0,0,0,1.83.38,1.81,1.81,0,0,0,1.09-1,2.07,2.07,0,0,0,.25-.86,2,2,0,0,0-.15-.9,2.49,2.49,0,0,0-.62-.85,4.84,4.84,0,0,0-1.13-.77l-6.42-3.29,2-3.92,12,6.13L76,158.86l-2.31-1a4.48,4.48,0,0,1,1.09,2.51A5,5,0,0,1,74.14,163Z"/><path class="cls-7" d="M84,155.81l-16.31-10,2.07-3.39L74,144.8l-.76.15a6.13,6.13,0,0,1-1.6-1.92,4.6,4.6,0,0,1-.54-2.21,4.29,4.29,0,0,1,.67-2.24,4.89,4.89,0,0,1,2.16-2,5.37,5.37,0,0,1,3-.35,9.69,9.69,0,0,1,3.55,1.4,9.56,9.56,0,0,1,2.88,2.55,5.39,5.39,0,0,1,1.09,2.87,4.76,4.76,0,0,1-.75,2.83,3.83,3.83,0,0,1-2.42,1.87,5.47,5.47,0,0,1-3.11-.2l-.34-.69,8.44,5.15Zm-3.93-10.36a2.1,2.1,0,0,0,.19-2,4.67,4.67,0,0,0-2-2,4.77,4.77,0,0,0-2.68-.9,2.09,2.09,0,0,0-1.68,1.06,2,2,0,0,0-.3,1.3,2.69,2.69,0,0,0,.6,1.36,5.76,5.76,0,0,0,1.55,1.29,5.94,5.94,0,0,0,1.81.79,2.56,2.56,0,0,0,1.49,0A2,2,0,0,0,80.06,145.45Z"/><path class="cls-7" d="M80,126.31a7.63,7.63,0,0,1,2.76-2.44,5.9,5.9,0,0,1,3.35-.56,7.67,7.67,0,0,1,3.58,1.5,7.77,7.77,0,0,1,2.57,2.91,5.92,5.92,0,0,1,.54,3.35,8.22,8.22,0,0,1-4.16,5.81,5.87,5.87,0,0,1-3.36.57A8.69,8.69,0,0,1,79.14,133a5.77,5.77,0,0,1-.53-3.36A7.46,7.46,0,0,1,80,126.31Zm2.65,1.9a2.12,2.12,0,0,0-.45,1.27,2.32,2.32,0,0,0,.5,1.38,6.75,6.75,0,0,0,1.58,1.49,6.93,6.93,0,0,0,1.91,1,2.47,2.47,0,0,0,1.47,0,2.4,2.4,0,0,0,1.52-2.13,2.41,2.41,0,0,0-.5-1.38,6.67,6.67,0,0,0-1.57-1.48,7,7,0,0,0-1.92-1,2.4,2.4,0,0,0-1.47,0A2.3,2.3,0,0,0,82.66,128.21Z"/><path class="cls-7" d="M104.48,118a4.89,4.89,0,0,1-2.49,1.55,5.36,5.36,0,0,1-3-.2,10.93,10.93,0,0,1-5.61-5.07,5.51,5.51,0,0,1-.51-3,4.91,4.91,0,0,1,1.28-2.67,3.78,3.78,0,0,1,2.73-1.37,5.34,5.34,0,0,1,3,.86l.14.69-7.41-6.65,2.94-3.28,14.27,12.8-2.64,2.93-3.59-2.84.65-.12a5.58,5.58,0,0,1,1.21,2.16,4.57,4.57,0,0,1,.08,2.23A4.44,4.44,0,0,1,104.48,118ZM103,114.63a2,2,0,0,0,.54-1.24,2.66,2.66,0,0,0-.38-1.44,6.37,6.37,0,0,0-1.34-1.58,6,6,0,0,0-1.61-1.08,2.5,2.5,0,0,0-1.44-.21,2.07,2.07,0,0,0-1.17.67,2.17,2.17,0,0,0-.55,1.93A4.57,4.57,0,0,0,98.66,114a4.74,4.74,0,0,0,2.49,1.37A2.15,2.15,0,0,0,103,114.63Z"/><path class="cls-7" d="M116.57,105.43a7.86,7.86,0,0,1-3.26,2,5.83,5.83,0,0,1-3.41,0,8.73,8.73,0,0,1-5.22-5.44,5.81,5.81,0,0,1,.07-3.38,7.22,7.22,0,0,1,2-3.06,7,7,0,0,1,3.09-1.82,5.5,5.5,0,0,1,3.14.11,7,7,0,0,1,2.83,1.86c.22.23.44.47.65.71a7.82,7.82,0,0,1,.5.64l-7.4,7.11-1.7-1.76,6-5.77-.93,2.06a4.57,4.57,0,0,0-2.12-1.4,1.9,1.9,0,0,0-1.84.57,2.46,2.46,0,0,0-.74,1.27,2.49,2.49,0,0,0,.24,1.52,6.82,6.82,0,0,0,1.32,1.8,5.64,5.64,0,0,0,1.72,1.31,2.3,2.3,0,0,0,1.52.19,2.88,2.88,0,0,0,1.33-.78,2.67,2.67,0,0,0,.85-1.38,2.39,2.39,0,0,0-.15-1.41l3.38-1.57a4.19,4.19,0,0,1,.44,2.28,5.8,5.8,0,0,1-.7,2.33A8.12,8.12,0,0,1,116.57,105.43Z"/><path class="cls-7" d="M120.75,78l11.1,13.87-3.49,2.79L117.27,80.74Z"/><path class="cls-7" d="M134.3,89.83l-7.78-11,3.22-2.28,2.86,3.65-.69-.14a6.08,6.08,0,0,1-.65-2.51,4.25,4.25,0,0,1,.51-2.15,5.36,5.36,0,0,1,3.76-2.62,3.85,3.85,0,0,1,2.2.39,5.44,5.44,0,0,1,2,1.82l5.18,7.32-3.6,2.55-4.48-6.33a2.75,2.75,0,0,0-1.54-1.28,1.73,1.73,0,0,0-1.39.32,2.25,2.25,0,0,0-.77.93,2.06,2.06,0,0,0-.13,1.29,4.34,4.34,0,0,0,.78,1.65l4.13,5.83Z"/><path class="cls-7" d="M147.25,65.12l3.9-2.35,3,13.93-4.51,2.72-10.94-9.11,4-2.4,7.58,7.4Z"/><path class="cls-7" d="M164.77,71.21a7.85,7.85,0,0,1-3.69,1,5.81,5.81,0,0,1-3.25-1,7.78,7.78,0,0,1-2.47-3,7.66,7.66,0,0,1-1-3.74,5.89,5.89,0,0,1,1.05-3.23,7.4,7.4,0,0,1,2.77-2.35,7,7,0,0,1,3.48-.85,5.42,5.42,0,0,1,3,1,7.09,7.09,0,0,1,2.17,2.6c.14.29.28.58.41.87a5.33,5.33,0,0,1,.3.76l-9.15,4.66-1.11-2.18,7.42-3.78-1.49,1.7a4.59,4.59,0,0,0-1.63-2,1.89,1.89,0,0,0-1.92,0,2.4,2.4,0,0,0-1.08,1,2.51,2.51,0,0,0-.21,1.53,6.73,6.73,0,0,0,.74,2.1,5.65,5.65,0,0,0,1.27,1.75,2.32,2.32,0,0,0,1.39.62,2.91,2.91,0,0,0,1.51-.36,2.69,2.69,0,0,0,1.21-1.07,2.43,2.43,0,0,0,.26-1.4l3.69-.52a4.22,4.22,0,0,1-.23,2.31,5.91,5.91,0,0,1-1.35,2A8.39,8.39,0,0,1,164.77,71.21Z"/><path class="cls-7" d="M177.28,65.41a9.67,9.67,0,0,1-3.59.8,7,7,0,0,1-3.28-.67l.93-3.14a5.07,5.07,0,0,0,2.15.65,4.84,4.84,0,0,0,2.43-.4,3,3,0,0,0,1.12-.73.82.82,0,0,0-.29-1.36,2.36,2.36,0,0,0-1.1,0l-1.82.36a6.88,6.88,0,0,1-3.78-.06,3.55,3.55,0,0,1-2-2,3.88,3.88,0,0,1-.22-2.2,4.52,4.52,0,0,1,1.2-2.29A8,8,0,0,1,172,52.46a9.32,9.32,0,0,1,3.43-.81,5.46,5.46,0,0,1,2.87.66l-1,3.1a4.09,4.09,0,0,0-2-.54,4.64,4.64,0,0,0-2,.34,4.07,4.07,0,0,0-.92.52,1.52,1.52,0,0,0-.46.56.78.78,0,0,0,0,.58.76.76,0,0,0,.54.43,3.23,3.23,0,0,0,1.28-.06l2.36-.47a5,5,0,0,1,3.19.14,3.49,3.49,0,0,1,1.74,1.86,4.34,4.34,0,0,1,.3,2.45,4.5,4.5,0,0,1-1.22,2.31A8.27,8.27,0,0,1,177.28,65.41Z"/><path class="cls-7" d="M189,46.36l1.08,3.08-9.91,3.47-1.08-3.08Zm-5.06-2.76,4.28,12.22A1.79,1.79,0,0,0,189.1,57a1.82,1.82,0,0,0,1.32,0,3.66,3.66,0,0,0,1-.5,2.4,2.4,0,0,0,.62-.69l1.38,2.52a5,5,0,0,1-1.3,1.25,7.78,7.78,0,0,1-1.82.92,7.06,7.06,0,0,1-2.55.44,3.45,3.45,0,0,1-2-.75A4.91,4.91,0,0,1,184.3,58l-4.11-11.74Z"/><path class="cls-7" d="M193,43.54a3,3,0,0,1-2,.05A2.09,2.09,0,0,1,190,42.18a2.13,2.13,0,0,1,.1-1.78,3.87,3.87,0,0,1,3.74-1.12,2.1,2.1,0,0,1,1.08,1.44,2,2,0,0,1-.12,1.76A3,3,0,0,1,193,43.54Zm2.56.87,3.84,12.9-4.22,1.25-3.84-12.9Z"/><path class="cls-7" d="M204.68,41.76a9.31,9.31,0,0,1,3.4-.25,4.55,4.55,0,0,1,2.44,1,4.52,4.52,0,0,1,1.15,4.83,4.52,4.52,0,0,1-1.72,2,9.64,9.64,0,0,1-3.15,1.29,7.77,7.77,0,0,1-4.83-.07,3.92,3.92,0,0,1-2.33-2.9,4.1,4.1,0,0,1,.14-2.59,4.66,4.66,0,0,1,1.72-2A9.73,9.73,0,0,1,204.68,41.76Zm4.71,9.92a5.33,5.33,0,0,1,3.59.16,3.4,3.4,0,0,1,1.83,2.45,4.23,4.23,0,0,1-.22,2.9,5.25,5.25,0,0,1-2,2.19A11.78,11.78,0,0,1,209,60.79a10.64,10.64,0,0,1-5.16.29,2.78,2.78,0,0,1-2.08-2,2.2,2.2,0,0,1,.43-2,4.94,4.94,0,0,1,2.67-1.41v.44a4.06,4.06,0,0,1-2.52-.39,2.72,2.72,0,0,1-1.23-1.81,2.59,2.59,0,0,1,.47-2.27A4.34,4.34,0,0,1,204,50.13l1.74.38-.4.1a2.76,2.76,0,0,0-1.31.67.91.91,0,0,0-.24.8.78.78,0,0,0,.52.59,2.11,2.11,0,0,0,1.11,0Zm-4.1-7.38a1.93,1.93,0,0,0-1.23.82,2.22,2.22,0,0,0,.66,2.8,2.11,2.11,0,0,0,2.69-.64,1.87,1.87,0,0,0,.2-1.51,1.94,1.94,0,0,0-.87-1.29A1.9,1.9,0,0,0,205.29,44.3Zm3.08,13.6a10.72,10.72,0,0,0,2-.64,3.32,3.32,0,0,0,1.09-.76.87.87,0,0,0,.23-.79.75.75,0,0,0-.42-.55,1.65,1.65,0,0,0-1.06,0l-4.52,1.07a1.14,1.14,0,0,0-.7.45.88.88,0,0,0-.14.72c.1.4.46.64,1.08.73A7.12,7.12,0,0,0,208.37,57.9ZM210.46,37l1.07,2.9a1.69,1.69,0,0,0-.32,0l-.31.06a2.26,2.26,0,0,0-1.51,1,2,2,0,0,0-.21,1.53l-1.65-.22a6,6,0,0,1-.12-2.16,3.84,3.84,0,0,1,.79-1.9A3.25,3.25,0,0,1,210.05,37l.19,0Z"/><path class="cls-7" d="M221.83,43.69a2.12,2.12,0,0,0-.74-1.39,1.76,1.76,0,0,0-1.43-.33,2.44,2.44,0,0,0-1.38.67,2.54,2.54,0,0,0-.58,1.69L213.87,44a4.86,4.86,0,0,1,1.4-3.36,7.26,7.26,0,0,1,4.15-1.84,8.05,8.05,0,0,1,3.27.06,4.46,4.46,0,0,1,2.3,1.37,5.28,5.28,0,0,1,1.15,2.67l.78,4.86c.12.69.47,1,1.07.89a2.19,2.19,0,0,0,.72-.22l.16,2.62a4.31,4.31,0,0,1-1.81.67,4.41,4.41,0,0,1-1.82-.05,2.71,2.71,0,0,1-1.36-.81,3.13,3.13,0,0,1-.71-1.65l0-.16.46-.26a2.94,2.94,0,0,1-.35,2,3.93,3.93,0,0,1-1.5,1.41,6.43,6.43,0,0,1-2.11.72,5.67,5.67,0,0,1-2.34-.06,3.38,3.38,0,0,1-1.7-1,3.69,3.69,0,0,1-.85-1.93,3.55,3.55,0,0,1,.45-2.51,4.8,4.8,0,0,1,2.41-1.74l4.68-1.81.35,2.4-2.37.92a2.72,2.72,0,0,0-1.06.65,1.14,1.14,0,0,0-.23,1,1,1,0,0,0,.56.81,1.58,1.58,0,0,0,1,.13,2.48,2.48,0,0,0,.81-.26A1.9,1.9,0,0,0,222,49a2,2,0,0,0,.38-.78,2.58,2.58,0,0,0,0-1Z"/><path class="cls-7" d="M235.4,36.85a8.19,8.19,0,0,1,3.32.3,5.22,5.22,0,0,1,2.17,1.35,4.57,4.57,0,0,1,1.09,2l-3.93,1.74a3.57,3.57,0,0,0-.81-1.67,1.69,1.69,0,0,0-1.43-.46,2.4,2.4,0,0,0-1.35.51,2.33,2.33,0,0,0-.73,1.3,6.52,6.52,0,0,0-.1,2.18,6.13,6.13,0,0,0,.49,2.11,2.3,2.3,0,0,0,1,1.11,2.48,2.48,0,0,0,1.37.24,1.88,1.88,0,0,0,1.7-1.14,3,3,0,0,0,.26-1.21l4.07,1a4.25,4.25,0,0,1-.79,2.19,5.5,5.5,0,0,1-2,1.64,8.71,8.71,0,0,1-6.74.29,5.74,5.74,0,0,1-2.63-2.17,8.77,8.77,0,0,1-.65-7.54A5.72,5.72,0,0,1,231.92,38,7.47,7.47,0,0,1,235.4,36.85Z"/><path class="cls-7" d="M246.62,34.92a3,3,0,0,1-2-.46,2.07,2.07,0,0,1-.66-1.64,2.1,2.1,0,0,1,.56-1.7,3.92,3.92,0,0,1,3.9-.12,2.09,2.09,0,0,1,.67,1.66,2.07,2.07,0,0,1-.57,1.68A3,3,0,0,1,246.62,34.92Zm2.25,1.5.41,13.45-4.41.13-.41-13.45Z"/><path class="cls-7" d="M258.72,36.19a7.68,7.68,0,0,1,3.57.92,5.85,5.85,0,0,1,2.34,2.46,7.7,7.7,0,0,1,.77,3.8,7.67,7.67,0,0,1-1,3.76A5.8,5.8,0,0,1,262,49.46a8.14,8.14,0,0,1-7.14-.19,5.89,5.89,0,0,1-2.36-2.46,7.74,7.74,0,0,1-.76-3.81,7.66,7.66,0,0,1,1-3.75,5.72,5.72,0,0,1,2.49-2.33A7.54,7.54,0,0,1,258.72,36.19Zm-.09,3.26a2.27,2.27,0,0,0-1.31.34,2.41,2.41,0,0,0-.86,1.19,6.84,6.84,0,0,0-.34,2.14,6.63,6.63,0,0,0,.23,2.15,2.4,2.4,0,0,0,.79,1.23,2.37,2.37,0,0,0,2.62.07,2.35,2.35,0,0,0,.86-1.18,6.76,6.76,0,0,0,.35-2.14,7.1,7.1,0,0,0-.23-2.16,2.33,2.33,0,0,0-.8-1.23A2.22,2.22,0,0,0,258.63,39.45Zm0-9.4,4.1.11L260,34.75l-3.22-.09Z"/><path class="cls-7" d="M267.35,50.26l1.42-13.39,3.92.42-.25,4.63-.44-.56A6.25,6.25,0,0,1,273.17,39,4.39,4.39,0,0,1,275,37.76a4.89,4.89,0,0,1,2.28-.26,5,5,0,0,1,2.28.79A3.82,3.82,0,0,1,280.93,40a5.55,5.55,0,0,1,.29,2.68l-1,8.92-4.38-.47.82-7.71a2.81,2.81,0,0,0-.32-2,1.72,1.72,0,0,0-1.25-.67,2.25,2.25,0,0,0-1.2.18,2.08,2.08,0,0,0-.95.89,4.39,4.39,0,0,0-.5,1.76l-.75,7.09Z"/><path class="cls-7" d="M294.71,54.59a4.88,4.88,0,0,1-2.56-1.43,5.13,5.13,0,0,1-1.29-2.74,9.56,9.56,0,0,1,.18-3.79,9.48,9.48,0,0,1,1.52-3.57A5.41,5.41,0,0,1,295,41.15a5,5,0,0,1,2.95-.19,3.84,3.84,0,0,1,2.52,1.72,5.44,5.44,0,0,1,.72,3.08l-.53.46,2.21-9.71,4.3,1-4.26,18.69L299,55.3l.74-4.53.41.51a5.38,5.38,0,0,1-1.29,2.11A4.56,4.56,0,0,1,297,54.54,4.39,4.39,0,0,1,294.71,54.59ZM297,51.65a2,2,0,0,0,1.34-.12,2.65,2.65,0,0,0,1.07-1,6.43,6.43,0,0,0,.74-1.93,6.18,6.18,0,0,0,.16-1.94,2.56,2.56,0,0,0-.51-1.36,2,2,0,0,0-1.16-.69,2.15,2.15,0,0,0-2,.45,4.67,4.67,0,0,0-1.25,2.54,4.62,4.62,0,0,0,0,2.84A2.1,2.1,0,0,0,297,51.65Z"/><path class="cls-7" d="M311.57,59.08a7.94,7.94,0,0,1-3.31-1.9,5.85,5.85,0,0,1-1.59-3,7.68,7.68,0,0,1,.3-3.86A7.77,7.77,0,0,1,308.92,47a5.82,5.82,0,0,1,3-1.57,7.31,7.31,0,0,1,3.62.26,7,7,0,0,1,3.09,1.82A5.48,5.48,0,0,1,320,50.3a6.91,6.91,0,0,1-.26,3.37c-.1.31-.2.61-.32.91a5.94,5.94,0,0,1-.31.75l-9.8-3.06.73-2.34L318,52.41l-2.25.17a4.61,4.61,0,0,0,.21-2.53,1.93,1.93,0,0,0-1.39-1.33,2.4,2.4,0,0,0-1.47,0,2.46,2.46,0,0,0-1.22,1,6.86,6.86,0,0,0-.94,2,5.83,5.83,0,0,0-.32,2.15,2.32,2.32,0,0,0,.56,1.41,3,3,0,0,0,1.33.8,2.77,2.77,0,0,0,1.62.08,2.33,2.33,0,0,0,1.16-.82l3,2.21A4.36,4.36,0,0,1,316.54,59a6.09,6.09,0,0,1-2.39.51A8.2,8.2,0,0,1,311.57,59.08Z"/><path class="cls-7" d="M330.5,45.13l-5.17,13.65a2.12,2.12,0,0,0-.18,1.28,1.13,1.13,0,0,0,.76.69,3.69,3.69,0,0,0,.63.18c.17,0,.38,0,.64.07l-1.24,2.47a4.32,4.32,0,0,1-1.31,0,6,6,0,0,1-1.45-.35,3.92,3.92,0,0,1-2.46-2,4.64,4.64,0,0,1,.28-3.38l5.37-14.2Z"/><path class="cls-7" d="M351,69.68a7.73,7.73,0,0,1-3,2.17,7,7,0,0,1-3.32.43,10.33,10.33,0,0,1-3.45-1.07,9.52,9.52,0,0,1-3.77-3.2,7.71,7.71,0,0,1-1.27-4.4,13.42,13.42,0,0,1,4.73-9.43,7.74,7.74,0,0,1,4.29-1.61,9.41,9.41,0,0,1,4.79,1.1,10.55,10.55,0,0,1,2.9,2.08,6.84,6.84,0,0,1,1.67,2.76,6.54,6.54,0,0,1,.08,3.36l-4.54-.31a4,4,0,0,0,0-2.75,3.55,3.55,0,0,0-1.67-1.59,3.87,3.87,0,0,0-2.32-.42,4.19,4.19,0,0,0-2.21,1.11A8.91,8.91,0,0,0,342,60.6a9.56,9.56,0,0,0-1,3.13,3.91,3.91,0,0,0,.38,2.42,4.07,4.07,0,0,0,1.83,1.65,3.47,3.47,0,0,0,2.36.34,4,4,0,0,0,2.19-1.54Z"/><path class="cls-7" d="M350.52,75.76l10-16.18,12.14,7.52-2,3.26-8.08-5-2,3.29,6.42,4-1.9,3.06-6.42-4-2,3.31,8.38,5.2-2,3.26Z"/><path class="cls-7" d="M365,84.94l11.36-15.27,11.46,8.52-2.29,3.08-7.62-5.67-2.31,3.1,6.06,4.51-2.15,2.89-6.07-4.51-2.32,3.12,7.91,5.89-2.29,3.08Z"/><path class="cls-7" d="M402.85,91.28l-2.54,2.87-4.47-4-10.09,11.37-3.57-3.17L392.26,87l-4.49-4,2.55-2.87Z"/><path class="cls-7" d="M411.15,113.71l-3,2.68-6.79-7.56,3-2.68Z"/><path class="cls-7" d="M431.24,123.94a11.52,11.52,0,0,1,1.95,4.16,9.57,9.57,0,0,1,0,4.16l-3.95,0a8.21,8.21,0,0,0,.1-3.22,7.31,7.31,0,0,0-1.28-2.92,5.16,5.16,0,0,0-1.16-1.23,1.83,1.83,0,0,0-1.05-.38,1.63,1.63,0,0,0-.91.31,1.27,1.27,0,0,0-.52,1,4.64,4.64,0,0,0,.45,1.84l1.2,2.93a8.57,8.57,0,0,1,.76,4.41,4.56,4.56,0,0,1-2,3,5.76,5.76,0,0,1-3.36,1.17,6,6,0,0,1-3.31-1,10.71,10.71,0,0,1-2.9-2.85,14.65,14.65,0,0,1-1.69-3.09,11.67,11.67,0,0,1-.76-3.14,9.64,9.64,0,0,1,.15-2.87l4,0a7.21,7.21,0,0,0-.22,2.26,9.23,9.23,0,0,0,.45,2.4,8.58,8.58,0,0,0,1.12,2.22,5.81,5.81,0,0,0,1.11,1.21,1.87,1.87,0,0,0,1.05.43,1.51,1.51,0,0,0,.95-.3,1.39,1.39,0,0,0,.59-.94,3.37,3.37,0,0,0-.34-1.7l-1.33-3.21a12.22,12.22,0,0,1-.79-2.83,4.94,4.94,0,0,1,.26-2.52,4.76,4.76,0,0,1,1.75-2.1,5.5,5.5,0,0,1,3.14-1.07,6.29,6.29,0,0,1,3.38.94A10.19,10.19,0,0,1,431.24,123.94Z"/><path class="cls-7" d="M421.38,143.69,437.75,134,445,146.25l-3.3,2L436.89,140l-3.32,2,3.85,6.5-3.09,1.84-3.86-6.5-3.35,2,5,8.48-3.3,2Z"/><path class="cls-7" d="M454.38,165.16l-17.16,8.24-2.3-4.79,6.82-9.59,1.94-2.47v0l-3.12,1.63-8.66,4.15-1.83-3.8,17.16-8.24,2.3,4.78-6.82,9.59-1.94,2.48v0l3.12-1.62,8.66-4.16Z"/><path class="cls-7" d="M437.94,175l20.09-.61,2,5.36-15.6,12.66-1.72-4.6,10.21-7.63,2.53-1.81,0,0-3,.34-12.77.84Zm5.49,2.43,3.16-1.18,3.57,9.55L447,187Z"/><path class="cls-7" d="M205.91,464.11a14.69,14.69,0,0,0-.88-3.87,19.5,19.5,0,0,0-3.37-5.62,20.59,20.59,0,0,0-6.76-5.28,20.28,20.28,0,0,0-7-1.89l-.77-.08v0h.55l-.73-.06h-5l0,0h2.29v0l-1.08.12a14.43,14.43,0,0,0-3.82,1,26.56,26.56,0,0,0-5.34,2.78A20.08,20.08,0,0,0,165.78,463a22.3,22.3,0,0,0-.61,3.9c0,.19-.06.38-.09.58v1.65c0,.14.07.28.09.43.07.58.13,1.16.21,1.74a19.58,19.58,0,0,0,2,6.19,21,21,0,0,0,10.55,9.84,9.92,9.92,0,0,0,2.05.7,27.87,27.87,0,0,0,3.53.42l.19,0c-.31-.18-.57-.34-.83-.48a6.67,6.67,0,0,1-1.36-1l-2.83-2.7a5.73,5.73,0,0,0-1.48-1.06,15.85,15.85,0,0,1-3.55-2.46,18.8,18.8,0,0,1-3.5-4.49A16.58,16.58,0,0,1,167.9,468a17.71,17.71,0,0,1,.56-4.52,15.91,15.91,0,0,1,2.06-4.9A17.78,17.78,0,0,1,181,451a16.39,16.39,0,0,1,2.77-.56,16.16,16.16,0,0,1,4,.16,20,20,0,0,1,6.71,2.36,23.32,23.32,0,0,1,5.92,4.82l.18.19a.82.82,0,0,0-.14-.28,16.09,16.09,0,0,0-2.15-2.58,16.83,16.83,0,0,0-4.47-3.15,28.86,28.86,0,0,0-2.88-1.16,20,20,0,0,0-4.41-.88c-.39-.05-.77-.08-1.2-.12l.09,0h.36a15.76,15.76,0,0,1,3.75.44,16.68,16.68,0,0,1,3.32,1.06c.21.09.4.21.61.29a11.86,11.86,0,0,1,2.11,1.05,24.9,24.9,0,0,1,4.23,3.43,14.41,14.41,0,0,1,2.09,2.82l1.12,1.89a2.7,2.7,0,0,0,.49.58,1,1,0,0,0-.09-.24c-.32-.69-.64-1.39-1-2.08s-.6-1.18-.93-1.75a13.47,13.47,0,0,0-4.54-4.77c-.6-.39-1.21-.76-1.82-1.13a16.55,16.55,0,0,0-4.41-1.84,32.94,32.94,0,0,0-3.69-.72,9.61,9.61,0,0,0-3.12,0c-.81.15-1.61.32-2.41.48a17,17,0,0,0-6.11,2.53c-1,.63-1.85,1.35-2.76,2.06-.36.29-.71.6-1.06.91l-.16.11,0,0c.21-.26.4-.53.63-.77a18.28,18.28,0,0,1,5.29-3.8,19.8,19.8,0,0,1,7.81-2,18.65,18.65,0,0,1,5.85.69,19.89,19.89,0,0,1,10.8,7.42,12.59,12.59,0,0,1,2.15,4.24,6.76,6.76,0,0,0,.76,1.74l.11.15a.45.45,0,0,0,0-.23c-.28-.89-.55-1.79-.87-2.67a14.62,14.62,0,0,0-2.32-4.22,22.3,22.3,0,0,0-3.85-3.67,19.32,19.32,0,0,0-4.53-2.47,20.19,20.19,0,0,0-6-1.39,18.15,18.15,0,0,0-4.29.18l-.46.06a15,15,0,0,1,3.65-.39,18.4,18.4,0,0,1,4.94.68,21.91,21.91,0,0,1,9.13,5.16,16.09,16.09,0,0,1,4.36,6.75c.45,1.37.86,2.76,1.28,4.14,0,.07,0,.15.08.22A2.16,2.16,0,0,0,205.91,464.11Z"/><path class="cls-7" d="M191.74,490.83l-.77-.1a16.79,16.79,0,0,1-5-1.45,11.12,11.12,0,0,1-2.31-1.52q-1.91-1.58-3.65-3.33a6.07,6.07,0,0,1-1-1.56c-.16-.32-.31-.65-.48-1a.41.41,0,0,1,.29.12,2.23,2.23,0,0,0,1.09.45,1.6,1.6,0,0,0,.49,0,1.41,1.41,0,0,1,.79.06,3.23,3.23,0,0,1,1,.56c.43.32.85.65,1.29,1a23.84,23.84,0,0,0,4.59,2.59,6.79,6.79,0,0,0,2.6.53c.81,0,1.62,0,2.43.07a12.13,12.13,0,0,0,6.52-1.74,11.48,11.48,0,0,0,5.56-7.71,6.62,6.62,0,0,0,.18-1.72c0-.86-.05-1.72-.11-2.57a7.87,7.87,0,0,0-.93-3,11.82,11.82,0,0,0-7.3-6.2,6.89,6.89,0,0,0-1.56-.27c-.65-.05-1.31-.07-2-.07a10.81,10.81,0,0,0-4.43,1.07,14.12,14.12,0,0,0-6.82,6.52,6.22,6.22,0,0,1-.32.56.38.38,0,0,1,0-.1,13.74,13.74,0,0,1,5.42-6.57,11.84,11.84,0,0,1,4.67-1.69,13.06,13.06,0,0,1,5,.23l.12,0s0,0,0,0a6,6,0,0,0-1.3-.37,14.88,14.88,0,0,0-3.2-.18,12.7,12.7,0,0,0-9.77,5.38c-.42.56-.74,1.18-1.11,1.78a.73.73,0,0,1-.14.18c0-.12.07-.25.12-.36a11.44,11.44,0,0,1,8.38-7.33,13.39,13.39,0,0,1,3.21-.36,14.89,14.89,0,0,1,5.35,1.12,9.47,9.47,0,0,1,3.14,1.95c.26.24.54.47.8.7a.81.81,0,0,0,.26.15c0-.06-.05-.12-.08-.17a4.52,4.52,0,0,0-1.26-1.49,13.39,13.39,0,0,0-6.09-2.71,13.08,13.08,0,0,0-3.59-.08,21.05,21.05,0,0,0-3.06.53,8.14,8.14,0,0,0-2,.76l-1,.59a10.23,10.23,0,0,0-3.78,3.78c-.22.37-.42.76-.63,1.13a.55.55,0,0,1-.17.21c0-.08,0-.16,0-.23a8,8,0,0,1,.94-2.32c.36-.59.75-1.17,1.16-1.73a5.21,5.21,0,0,1,1.42-1.31,25.38,25.38,0,0,1,3.32-1.8,10,10,0,0,1,2.5-.67,14.32,14.32,0,0,1,3.64-.15,15.07,15.07,0,0,1,13.58,11.87,13.46,13.46,0,0,1,.25,3.85,14.12,14.12,0,0,1-3.47,8.74,14.88,14.88,0,0,1-8.34,5.07,15.52,15.52,0,0,1-2.25.37.53.53,0,0,0-.17,0Z"/><path class="cls-7" d="M253.41,478.05v9.76c0,1-.09,1.06-1,1.05l-1.89,0a1.1,1.1,0,0,1-1.12-.86c-.25-.83-.49-1.66-.73-2.49-.08-.27-.14-.55-.24-.81s-.25-.34-.51-.16a2.92,2.92,0,0,0-.38.32,23.08,23.08,0,0,1-3.71,2.74,17.24,17.24,0,0,1-6.69,2.22,28.61,28.61,0,0,1-4.44.25,21.09,21.09,0,0,1-9.53-2.58,14.35,14.35,0,0,1-6-6.11,24.69,24.69,0,0,1-2.48-7.62,33,33,0,0,1-.42-5.35,22.82,22.82,0,0,1,3.65-12.58,17.93,17.93,0,0,1,11.54-7.91,23.41,23.41,0,0,1,6.83-.53A20.54,20.54,0,0,1,248.17,452a12.33,12.33,0,0,1,4.4,7.73c.14.86,0,1-.86,1l-3.55-.05-.49-.05a1.1,1.1,0,0,1-.88-.69c-.08-.18-.14-.36-.22-.54-.25-.54-.48-1.09-.75-1.62a8.33,8.33,0,0,0-4.31-4,18,18,0,0,0-6.54-1.46,14.19,14.19,0,0,0-6.95,1.52,13,13,0,0,0-6.18,6.72,18.33,18.33,0,0,0-1.47,6.15,27.77,27.77,0,0,0,.57,7.82,15.43,15.43,0,0,0,1.67,4.38,12.4,12.4,0,0,0,8.55,6.2,15.63,15.63,0,0,0,4.47.35,13.53,13.53,0,0,0,9.73-4.92,10.72,10.72,0,0,0,2.37-5.76c.07-.61.1-1.22.12-1.83s-.11-.85-.84-.92a60,60,0,0,0-6.15-.18H236.5a9.46,9.46,0,0,0-1.07.06c-.63.06-.83-.07-.84-.68,0-1.05,0-2.11,0-3.17,0-.67.28-.91.95-.94s1.2,0,1.8,0h15c.92,0,1,.12,1,1.06Z"/><path class="cls-7" d="M291.85,489.19a20.61,20.61,0,0,1-7.48-1.38,16.45,16.45,0,0,1-9.4-9.28,30.92,30.92,0,0,1-2.27-8.76,23.07,23.07,0,0,1,2.91-14.18,16.93,16.93,0,0,1,11.55-8.46,24.84,24.84,0,0,1,10.92,0,17.58,17.58,0,0,1,6,2.55,13.84,13.84,0,0,1,6,8.73c.07.29.13.59.17.88s-.06.47-.4.51-.42,0-.63,0l-3.6,0c-.66,0-.83-.11-1.06-.73s-.39-1.07-.64-1.58a9.66,9.66,0,0,0-6.05-5.25,15.15,15.15,0,0,0-11.5.76,12.08,12.08,0,0,0-5.93,6.28,18.37,18.37,0,0,0-1.48,6,30.89,30.89,0,0,0,0,5.09,18.38,18.38,0,0,0,2.7,8.54,13.22,13.22,0,0,0,2.16,2.62,10.51,10.51,0,0,0,6.3,2.75,18,18,0,0,0,3.95,0c4.64-.58,8-2.89,9.86-7.24a22.83,22.83,0,0,0,.9-2.76,1.29,1.29,0,0,1,1.29-1.13c.82,0,1.65-.05,2.47,0,.6,0,1.2,0,1.8.07.38,0,.46.09.4.46a18.89,18.89,0,0,1-3,7.84,17.33,17.33,0,0,1-11,7.28A22.49,22.49,0,0,1,291.85,489.19Z"/><path class="cls-7" d="M266.08,467.88v12.76c0,2.22,0,4.44,0,6.67,0,.94-.15,1.09-1.08,1.09h-4.54a2.17,2.17,0,0,1-.36,0,.55.55,0,0,1-.53-.47,3.6,3.6,0,0,1-.06-.66q0-6.31,0-12.62V454.15c0-1.84,0-3.67,0-5.51,0-.12,0-.24,0-.36,0-.48.18-.68.67-.74a17.71,17.71,0,0,1,1.92-.14c1,0,2,0,3.06,0,.74,0,.92.2.92.94,0,2.69,0,5.37,0,8.06Z"/><path class="cls-7" d="M314.35,475.61l5.11-.44a11.29,11.29,0,0,0,1.68,5,9.23,9.23,0,0,0,4.12,3.19,15.6,15.6,0,0,0,6.28,1.21,15.11,15.11,0,0,0,5.47-.92,7.56,7.56,0,0,0,3.53-2.53,5.79,5.79,0,0,0,1.16-3.5,5.35,5.35,0,0,0-1.11-3.36,8.32,8.32,0,0,0-3.69-2.42,74,74,0,0,0-7.28-2,36.85,36.85,0,0,1-7.9-2.56,11,11,0,0,1-4.37-3.81,9.29,9.29,0,0,1-1.44-5.09,10.39,10.39,0,0,1,1.76-5.79,10.82,10.82,0,0,1,5.14-4.09,19.46,19.46,0,0,1,7.5-1.4,20.47,20.47,0,0,1,8,1.47,11.51,11.51,0,0,1,5.34,4.31,12.34,12.34,0,0,1,2,6.45l-5.19.39a8.36,8.36,0,0,0-2.83-5.86q-2.42-2-7.13-2c-3.28,0-5.66.6-7.16,1.8a5.39,5.39,0,0,0-2.25,4.34,4.66,4.66,0,0,0,1.59,3.63c1,.94,3.77,1.92,8.17,2.91a54.52,54.52,0,0,1,9.05,2.61,12.44,12.44,0,0,1,5.28,4.17,10.23,10.23,0,0,1,1.7,5.82,11.12,11.12,0,0,1-1.87,6.16,12.33,12.33,0,0,1-5.37,4.49,18.76,18.76,0,0,1-7.89,1.61,23.57,23.57,0,0,1-9.31-1.62A13,13,0,0,1,316.6,483,13.73,13.73,0,0,1,314.35,475.61Z"/><path class="cls-8" d="M189.15,169.25V124.14a.14.14,0,0,0-.26-.06l-33.78,67.79a1,1,0,0,0,.9,1.47h32.93a.21.21,0,0,1,.21.22v45.79a.65.65,0,0,0,1.23.28l33.55-69.39a.64.64,0,0,0-.57-.93H189.22A.07.07,0,0,1,189.15,169.25Z"/><path class="cls-8" d="M347.63,209.87H309.37a9,9,0,0,1-9-8.91V163a9,9,0,0,1,9-8.91h38.26a9,9,0,0,1,9,8.91V201A9,9,0,0,1,347.63,209.87Z"/><path class="cls-8" d="M285,211.33V152.66a13.86,13.86,0,0,1,13.9-13.77h59.2A13.86,13.86,0,0,1,372,152.66v58.67a13.86,13.86,0,0,1-13.9,13.78H298.9A13.86,13.86,0,0,1,285,211.33Zm79.69-58.67a6.57,6.57,0,0,0-6.59-6.53H298.9a6.57,6.57,0,0,0-6.59,6.53v58.67a6.57,6.57,0,0,0,6.59,6.54h59.2a6.57,6.57,0,0,0,6.59-6.54Z"/><rect class="cls-8" x="341.16" y="124" width="7.31" height="18.51"/><rect class="cls-8" x="324.85" y="124" width="7.31" height="18.51"/><rect class="cls-8" x="308.53" y="124" width="7.31" height="18.51"/><rect class="cls-8" x="341.16" y="221.49" width="7.31" height="18.51"/><rect class="cls-8" x="324.85" y="221.49" width="7.31" height="18.51"/><rect class="cls-8" x="308.53" y="221.49" width="7.31" height="18.51"/><path class="cls-9" d="M223.55,390l-32.22-75.71a11.4,11.4,0,0,1-2.2.22,10.82,10.82,0,0,1-2.06-.2L155.18,390Zm-60.82-3.74L189.34,365,216,386.26Zm26.61-25.12-10.7-8.55H200Zm27.08,21.63-24.69-19.72,12.15-9.72Zm-16.62-39-8.25-9.38,2.9-3.2ZM189.56,332.1l-2.13-2.43h4.33Zm-.35-13.25,3.33,7.83h-6.63Zm-5,11.75,3.28,3.73-9.07,10Zm5.27,6,11.45,13H177.74Zm-2.59,26.47L162.27,382.8l12.44-29.52Z"/><path class="cls-9" d="M189.37,292.47c-14.31-.21-14.31,22.3,0,22.08C203.68,314.76,203.68,292.25,189.37,292.47Z"/><path class="cls-9" d="M173.48,287.76a22.82,22.82,0,0,0-.17,32.25l2.93-2.94a18.65,18.65,0,0,1,.17-26.38Z"/><path class="cls-9" d="M169.09,283.36l-2.92-2.93a33.16,33.16,0,0,0-.18,46.91l2.93-2.93a29,29,0,0,1,.17-41.05Z"/><path class="cls-9" d="M161.77,276l-2.93-2.93a43.53,43.53,0,0,0-.17,61.57l2.93-2.93a39.38,39.38,0,0,1,.17-55.71Z"/><path class="cls-9" d="M205.52,287.76l-2.93,2.93a18.65,18.65,0,0,1,.17,26.38l2.93,2.94a22.79,22.79,0,0,0-.17-32.25Z"/><path class="cls-9" d="M212.84,280.43l-2.93,2.93a29,29,0,0,1,.17,41.05l2.93,2.93a33.17,33.17,0,0,0-.17-46.91Z"/><path class="cls-9" d="M220.15,273l-2.92,2.93a39.38,39.38,0,0,1,.17,55.71l2.93,2.93a43.52,43.52,0,0,0-.18-61.57Z"/><path class="cls-7" d="M311.83,314.26v3.3a14.85,14.85,0,0,0-15,14.77h-3.3a18.13,18.13,0,0,1,18.26-18.07Z"/><path class="cls-7" d="M311.83,306v3.3a23.1,23.1,0,0,0-23.22,23h-3.3A26.39,26.39,0,0,1,311.83,306Z"/><path class="cls-7" d="M372,347.5a11,11,0,0,0-15.65-10,15.55,15.55,0,1,0-29.57-7.65,12.83,12.83,0,0,0-23,7.89,12.23,12.23,0,0,0,.16,1.92,9.61,9.61,0,0,0-3.27-.58,9.72,9.72,0,0,0-.18,19.44h61.26l0,0A11,11,0,0,0,372,347.5Z"/></g></g></svg>