<?xml version="1.0" encoding="UTF-8"?>
<svg id="Capa_1" xmlns="http://www.w3.org/2000/svg" version="1.1" viewBox="0 0 1340.2 212.6">
  <!-- Generator: Adobe Illustrator 30.1.0, SVG Export Plug-In . SVG Version: 2.1.1 Build 136)  -->
  <defs>
    <style>
      .st0, .st1 {
        fill: #fff;
      }

      .st1 {
        fill-rule: evenodd;
      }
    </style>
  </defs>
  <g>
    <path class="st1" d="M109.1,9.6c11.7,0,21.2,9.6,21.2,21.3s-9.5,21.3-21.2,21.3-21.2-9.6-21.2-21.3,9.5-21.3,21.2-21.3"/>
    <path class="st1" d="M32,78.3h0c0,.4-.1.7-.1.9,0,1.1.6,1.9,1.9,2.5,1.3.5,3.2.8,5.8.8s3.6-.2,4.7-.7c1.1-.4,1.7-1,1.7-1.8,0-1.2-2.2-2.1-6.7-2.8-.5,0-.9-.2-1.2-.2s-.7,0-1.3-.2c-7.1-1.2-11.7-2.4-13.7-3.8-1-.7-1.7-1.4-2.2-2.4-.5-.9-.7-1.9-.7-3.1,0-2.8,1.6-4.9,4.9-6.4s8.1-2.2,14.3-2.2,10.8.7,13.8,2c3,1.4,4.5,3.5,4.5,6.3v.3h-11.8c0-1.1-.6-1.8-1.8-2.3s-2.9-.8-5.2-.8-3.2.2-4.1.5c-1,.4-1.5.9-1.5,1.5,0,1.2,2.6,2.2,7.7,3,1,0,1.8.3,2.3.4,3.7.6,6.3,1.1,7.8,1.6,1.6.4,2.9,1,4,1.6,1.3.7,2.2,1.6,2.9,2.6.7,1.1,1,2.2,1,3.4,0,2.9-1.8,5.1-5.3,6.6-3.6,1.5-8.7,2.3-15.4,2.3s-11.4-.7-14.4-2.2-4.4-3.9-4.4-7.1v-.4h12.5ZM64.3,87.6v-28.2h33.6v6.1h-21v4.5h19.4v6h-19.4v5.5h21.8v6.2h-34.4,0ZM103.9,87.6v-28.2h16l17.1,18.9v-18.9h12.1v28.2h-16.6l-16.5-19v19s-12.1,0-12.1,0ZM181.7,76.4l-6-10.3-6.4,10.3h12.4ZM162.5,87.6h-12.6l19.5-28.2h14l18.6,28.2h-14l-2.8-5.1h-19.6l-3,5.1h0Z"/>
    <path class="st1" d="M47.5,187.1l-11.3-10.6,34.3-59.5c1.9-3.2-.5-7.3-4.2-7.3H10.2v-14.9h90.4l-53,92.3h0Z"/>
    <path class="st1" d="M169.6,187.1l11.3-10.6-34.3-59.5c-1.9-3.2.5-7.3,4.2-7.3h56.1v-14.9h-90.4l53,92.3h.1Z"/>
    <path class="st1" d="M108.5,110.5c0,0,0-.2,0-.2l50.9,84.2-13.5,7-32.8-55c-1.9-3.2-6.6-3.2-8.5,0-10.9,18.4-32.6,55-32.6,55l-13.2-6.5s47-79.8,49.7-84.5"/>
  </g>
  <g>
    <g>
      <path class="st0" d="M303.6,125.1v-40.8h31.8v8.2h-21.1v8.3h16.8v7.7h-16.8v8.3h21.9v8.2h-32.6,0Z"/>
      <path class="st0" d="M352.2,81.1v33.5c0,1.4.2,2.3.7,2.9s1.2.9,2.3.9,1.1,0,1.5,0c.4,0,.9-.2,1.5-.4l-.7,6.3c-.7.5-1.7.8-2.9,1.1s-2.4.4-3.5.4c-3.3,0-5.7-.8-7.2-2.3s-2.2-4-2.2-7.5v-34.9h10.5Z"/>
      <path class="st0" d="M377.1,125.7c-3.4,0-6.3-.6-8.8-1.9s-4.4-3.1-5.7-5.5c-1.3-2.4-2-5.3-2-8.7s.7-6.3,2-8.7c1.3-2.4,3.2-4.2,5.7-5.5s5.3-1.9,8.4-1.9,6,.6,8.3,1.9,4,3,5.2,5.2,1.8,4.7,1.8,7.6,0,1.5,0,2.3-.1,1.3-.2,1.8h-24.5v-5.7h19.9l-5.1,2c0-2.5-.4-4.4-1.3-5.7-.9-1.3-2.3-2-4.1-2s-2.4.3-3.4.9c-.9.6-1.6,1.6-2.1,2.9s-.7,3-.7,5,.3,3.7.8,4.9c.5,1.2,1.3,2.1,2.3,2.7s2.2.9,3.6.9,2.8-.3,3.7-.9c.9-.6,1.6-1.5,2.1-2.6l8.4,2.8c-.6,1.7-1.6,3.2-3,4.4-1.4,1.2-3.1,2.1-5,2.7s-4,.9-6.2.9v.2Z"/>
      <path class="st0" d="M412.5,93.6c3.1,0,5.7.4,7.8,1.3,2.1.9,3.7,2.1,4.9,3.5,1.2,1.5,1.9,3,2.2,4.7l-9.7,3.2c-.3-1.8-.8-3.1-1.6-4-.8-.9-1.9-1.3-3.3-1.3s-2.4.3-3.3.9-1.6,1.5-2,2.8c-.5,1.3-.7,3-.7,5s.2,3.7.7,4.9c.5,1.3,1.2,2.2,2.1,2.7.9.6,2,.8,3.2.8s1.9-.2,2.6-.6,1.2-1,1.7-1.7.7-1.6.9-2.7l9.5,3c-.3,1.8-1.1,3.4-2.3,4.9-1.3,1.4-2.9,2.5-5,3.4-2.1.8-4.5,1.2-7.2,1.2s-6.3-.6-8.8-1.9-4.4-3.1-5.8-5.5-2-5.3-2-8.7.7-6.3,2-8.7c1.4-2.4,3.3-4.2,5.7-5.5,2.5-1.3,5.3-1.9,8.5-1.9v.2Z"/>
      <path class="st0" d="M455,94.2v7.5h-25v-7.5h25ZM445.8,84.4v29.7c0,1.5.4,2.5,1.1,3.2.7.6,1.7,1,3,1s1.8,0,2.6-.3c.7-.2,1.4-.6,1.9-1l1.1,6.5c-1,.7-2.3,1.3-3.9,1.7s-3.2.6-4.8.6c-2.3,0-4.4-.3-6.1-1s-3-1.7-4-3.2c-.9-1.4-1.4-3.4-1.5-5.7v-28.5l10.5-2.9h0Z"/>
      <path class="st0" d="M459.9,125.1v-30.9h9.3l.4,6.7c.8-2.3,1.9-4.1,3.5-5.4,1.5-1.3,3.5-1.9,5.9-1.9s1.5,0,2,.2,1,.3,1.3.5l-1.1,8.7c-.4-.2-.9-.3-1.6-.4-.6,0-1.4-.2-2.3-.2s-2.4.3-3.5.8-1.9,1.3-2.6,2.4c-.6,1.1-1,2.4-1,4v15.6h-10.5.2Z"/>
      <path class="st0" d="M500.8,93.6c3.3,0,6.1.6,8.6,1.9s4.4,3.1,5.7,5.5c1.4,2.4,2.1,5.3,2.1,8.7s-.7,6.3-2.1,8.7c-1.4,2.4-3.3,4.2-5.7,5.5-2.5,1.3-5.3,1.9-8.6,1.9s-6-.6-8.5-1.9-4.4-3.1-5.8-5.5-2.1-5.3-2.1-8.7.7-6.3,2.1-8.7c1.4-2.4,3.3-4.2,5.8-5.5s5.3-1.9,8.5-1.9h0ZM500.8,101.1c-1.2,0-2.2.3-3.1.9s-1.5,1.5-2,2.8-.7,2.9-.7,4.9.2,3.7.7,4.9c.5,1.3,1.1,2.2,2,2.8.9.6,1.9.9,3.1.9s2.3-.3,3.2-.9c.9-.6,1.5-1.5,2-2.8s.7-2.9.7-4.9-.2-3.7-.7-4.9c-.5-1.3-1.1-2.2-2-2.8-.9-.6-1.9-.9-3.2-.9ZM500.1,79.5h9.8l-6.2,10.7h-7.7l4.1-10.7h0Z"/>
      <path class="st0" d="M523.1,125.1v-30.9h9.4l.6,10.6-1.2-1.2c.4-2.2,1.1-4.1,2.2-5.6,1.1-1.5,2.4-2.6,4-3.4s3.4-1.1,5.3-1.1,4,.4,5.6,1.2c1.6.8,2.8,2,3.7,3.6s1.4,3.6,1.4,6.1v20.6h-10.5v-17.8c0-2.1-.4-3.6-1.2-4.4s-1.9-1.2-3.2-1.2-1.9.2-2.8.7c-.9.5-1.5,1.2-2,2.3-.5,1-.7,2.4-.7,4.1v16.4h-10.6Z"/>
      <path class="st0" d="M566.6,90.6c-2.1,0-3.7-.4-4.7-1.2s-1.5-2.1-1.5-3.8.5-3.1,1.5-3.9,2.5-1.2,4.7-1.2,3.6.4,4.6,1.2c1,.8,1.5,2.1,1.5,3.9s-.5,3-1.5,3.8-2.5,1.2-4.6,1.2ZM571.9,94.2v30.9h-10.5v-30.9h10.5Z"/>
      <path class="st0" d="M594,93.6c3.1,0,5.7.4,7.8,1.3s3.7,2.1,4.9,3.5c1.2,1.5,1.9,3,2.2,4.7l-9.7,3.2c-.3-1.8-.8-3.1-1.6-4s-1.9-1.3-3.3-1.3-2.4.3-3.3.9c-.9.6-1.6,1.5-2,2.8-.5,1.3-.7,3-.7,5s.2,3.7.7,4.9c.5,1.3,1.2,2.2,2.1,2.7s2,.8,3.2.8,1.9-.2,2.6-.6c.7-.4,1.2-1,1.7-1.7s.7-1.6.9-2.7l9.5,3c-.3,1.8-1.1,3.4-2.3,4.9-1.3,1.4-2.9,2.5-5,3.4-2.1.8-4.5,1.2-7.2,1.2s-6.3-.6-8.8-1.9-4.4-3.1-5.8-5.5c-1.4-2.4-2-5.3-2-8.7s.7-6.3,2-8.7c1.4-2.4,3.3-4.2,5.7-5.5,2.5-1.3,5.3-1.9,8.5-1.9v.2Z"/>
      <path class="st0" d="M631.6,105.5c0-1.4-.4-2.6-1.2-3.4s-1.9-1.3-3.2-1.3-2.5.3-3.5,1-1.6,1.9-2,3.6l-8.9-2.1c.6-3,2.1-5.3,4.6-7.1,2.5-1.8,6-2.7,10.4-2.7s5.6.4,7.7,1.3c2.1.9,3.7,2.2,4.9,4,1.1,1.8,1.7,3.9,1.7,6.5v11.3c0,1.6.7,2.4,2.2,2.4s1.3,0,1.8-.2l-.6,6c-1.2.6-2.7.9-4.5.9s-3-.3-4.3-.8c-1.2-.5-2.2-1.3-2.9-2.3-.7-1.1-1.1-2.4-1.1-4v-.4l1.2-.4c0,1.8-.5,3.3-1.6,4.4-1.1,1.2-2.4,2.1-4.1,2.7s-3.4.9-5.2.9-3.9-.3-5.5-1-2.8-1.6-3.6-2.9-1.3-2.8-1.3-4.7.7-4.1,2-5.5c1.3-1.5,3.5-2.5,6.3-3.1l11.7-2.4v5.6l-6,1.2c-1.2.2-2.2.6-2.7,1.1-.6.5-.9,1.2-.9,2.1s.3,1.6,1,2c.7.5,1.4.7,2.3.7s1.4,0,2-.3c.6-.2,1.2-.5,1.7-1,.5-.4.9-1,1.2-1.6.3-.7.4-1.4.4-2.3v-8.2h0Z"/>
      <path class="st0" d="M697.8,94.2l-11.2,30.9c-1.2,3.3-2.4,5.8-3.8,7.8-1.4,1.9-3,3.3-4.8,4.2-1.9.9-4.1,1.3-6.7,1.3s-3.3-.2-4.8-.6c-1.4-.4-2.7-.9-3.8-1.5l2.1-7.1c.7.5,1.5.9,2.3,1.1.8.2,1.9.3,3.2.3s2.2-.2,2.9-.6c.8-.4,1.4-1.2,1.8-2.3l.8-1.9-3.6-8.4-9.3-23.2h11.6l4.8,17.6,1.5,6.5,1.7-6.8,4.8-17.4h10.5Z"/>
      <path class="st0" d="M751.8,84.3v8.2h-13.3v32.6h-10.6v-32.6h-13.3v-8.2h37.3-.1Z"/>
      <path class="st0" d="M766.4,125.7c-3.4,0-6.3-.6-8.8-1.9s-4.4-3.1-5.7-5.5-2-5.3-2-8.7.7-6.3,2-8.7c1.3-2.4,3.2-4.2,5.7-5.5s5.3-1.9,8.4-1.9,6,.6,8.3,1.9,4,3,5.2,5.2,1.8,4.7,1.8,7.6,0,1.5,0,2.3,0,1.3-.2,1.8h-24.5v-5.7h19.9l-5.1,2c0-2.5-.4-4.4-1.3-5.7-.9-1.3-2.3-2-4.1-2s-2.4.3-3.4.9c-.9.6-1.6,1.6-2.1,2.9s-.7,3-.7,5,.3,3.7.8,4.9c.5,1.2,1.3,2.1,2.3,2.7s2.2.9,3.6.9,2.8-.3,3.7-.9,1.6-1.5,2.1-2.6l8.4,2.8c-.6,1.7-1.6,3.2-3,4.4-1.4,1.2-3.1,2.1-5,2.7s-4,.9-6.2.9v.2Z"/>
      <path class="st0" d="M797.5,81.1v33.5c0,1.4.2,2.3.7,2.9s1.2.9,2.3.9,1.1,0,1.5,0c.4,0,.9-.2,1.5-.4l-.7,6.3c-.7.5-1.7.8-2.9,1.1-1.2.3-2.4.4-3.5.4-3.3,0-5.7-.8-7.2-2.3s-2.2-4-2.2-7.5v-34.9h10.5Z"/>
      <path class="st0" d="M822.4,125.7c-3.4,0-6.3-.6-8.8-1.9s-4.4-3.1-5.7-5.5-2-5.3-2-8.7.7-6.3,2-8.7c1.3-2.4,3.2-4.2,5.7-5.5s5.3-1.9,8.4-1.9,6,.6,8.3,1.9,4,3,5.2,5.2,1.8,4.7,1.8,7.6,0,1.5,0,2.3,0,1.3-.2,1.8h-24.5v-5.7h19.9l-5.1,2c0-2.5-.4-4.4-1.3-5.7-.9-1.3-2.3-2-4.1-2s-2.4.3-3.4.9c-.9.6-1.6,1.6-2.1,2.9s-.7,3-.7,5,.3,3.7.8,4.9c.5,1.2,1.3,2.1,2.3,2.7s2.2.9,3.6.9,2.8-.3,3.7-.9,1.6-1.5,2.1-2.6l8.4,2.8c-.6,1.7-1.6,3.2-3,4.4-1.4,1.2-3.1,2.1-5,2.7s-4,.9-6.2.9v.2Z"/>
      <path class="st0" d="M857.8,93.6c3.1,0,5.7.4,7.8,1.3s3.7,2.1,4.9,3.5c1.2,1.5,1.9,3,2.2,4.7l-9.7,3.2c-.3-1.8-.8-3.1-1.6-4s-1.9-1.3-3.3-1.3-2.4.3-3.3.9c-.9.6-1.6,1.5-2,2.8-.5,1.3-.7,3-.7,5s.2,3.7.7,4.9c.5,1.3,1.2,2.2,2.1,2.7s2,.8,3.2.8,1.9-.2,2.6-.6c.7-.4,1.2-1,1.7-1.7s.7-1.6.9-2.7l9.5,3c-.3,1.8-1.1,3.4-2.3,4.9-1.3,1.4-2.9,2.5-5,3.4-2.1.8-4.5,1.2-7.2,1.2s-6.3-.6-8.8-1.9-4.4-3.1-5.8-5.5c-1.4-2.4-2-5.3-2-8.7s.7-6.3,2-8.7c1.4-2.4,3.3-4.2,5.7-5.5,2.5-1.3,5.3-1.9,8.5-1.9v.2Z"/>
      <path class="st0" d="M892.9,93.6c3.3,0,6.1.6,8.6,1.9s4.4,3.1,5.7,5.5c1.4,2.4,2.1,5.3,2.1,8.7s-.7,6.3-2.1,8.7c-1.4,2.4-3.3,4.2-5.7,5.5-2.5,1.3-5.3,1.9-8.6,1.9s-6-.6-8.5-1.9-4.4-3.1-5.8-5.5c-1.4-2.4-2.1-5.3-2.1-8.7s.7-6.3,2.1-8.7c1.4-2.4,3.3-4.2,5.8-5.5s5.3-1.9,8.5-1.9ZM892.9,101.1c-1.2,0-2.2.3-3.1.9-.9.6-1.5,1.5-2,2.8s-.7,2.9-.7,4.9.2,3.7.7,4.9c.5,1.3,1.1,2.2,2,2.8.9.6,1.9.9,3.1.9s2.3-.3,3.2-.9,1.5-1.5,2-2.8.7-2.9.7-4.9-.2-3.7-.7-4.9c-.5-1.3-1.1-2.2-2-2.8-.9-.6-1.9-.9-3.2-.9Z"/>
      <path class="st0" d="M915.2,125.1v-30.9h9.4l.3,6c1-2.2,2.4-3.8,4.2-4.9s3.9-1.7,6.2-1.7,4.3.5,6,1.5,2.9,2.6,3.8,4.6c.7-1.4,1.5-2.5,2.6-3.4s2.3-1.6,3.6-2c1.4-.5,2.8-.7,4.2-.7,2.1,0,3.9.4,5.4,1.2,1.6.8,2.8,2,3.7,3.6s1.4,3.7,1.4,6.1v20.6h-10.5v-18.2c0-2-.4-3.4-1.1-4.1-.8-.8-1.8-1.2-3.1-1.2s-2,.3-2.8.8-1.5,1.3-1.9,2.3c-.5,1-.7,2.3-.7,3.9v16.5h-10.5v-18.2c0-2-.4-3.4-1.2-4.1-.8-.8-1.8-1.2-3-1.2s-1.8.2-2.7.7c-.8.5-1.5,1.3-2,2.3-.5,1.1-.7,2.4-.7,4.1v16.3h-10.6Z"/>
      <path class="st0" d="M983.8,125.7c-2.1,0-3.9-.4-5.5-1.1s-2.8-1.9-3.7-3.5-1.4-3.7-1.4-6.3v-20.6h10.5v18.2c0,2,.4,3.4,1.2,4.1.8.8,1.9,1.2,3.3,1.2s1.4,0,2.1-.4c.7-.3,1.2-.7,1.7-1.2.5-.6.9-1.3,1.1-2.2.3-.9.4-1.9.4-3.1v-16.6h10.5v30.9h-9.4l-.3-5.8c-1,2.2-2.4,3.8-4.1,4.9-1.8,1.1-3.9,1.6-6.4,1.6h0Z"/>
      <path class="st0" d="M1011.6,125.1v-30.9h9.4l.6,10.6-1.2-1.2c.4-2.2,1.1-4.1,2.2-5.6,1.1-1.5,2.4-2.6,4-3.4s3.4-1.1,5.3-1.1,4,.4,5.6,1.2c1.6.8,2.8,2,3.7,3.6.9,1.6,1.4,3.6,1.4,6.1v20.6h-10.5v-17.8c0-2.1-.4-3.6-1.2-4.4-.8-.8-1.9-1.2-3.2-1.2s-1.9.2-2.8.7-1.5,1.2-2,2.3c-.5,1-.7,2.4-.7,4.1v16.4h-10.6Z"/>
      <path class="st0" d="M1055.1,90.6c-2.1,0-3.7-.4-4.7-1.2s-1.5-2.1-1.5-3.8.5-3.1,1.5-3.9,2.5-1.2,4.7-1.2,3.6.4,4.6,1.2c1,.8,1.5,2.1,1.5,3.9s-.5,3-1.5,3.8-2.5,1.2-4.6,1.2ZM1060.4,94.2v30.9h-10.5v-30.9h10.5Z"/>
      <path class="st0" d="M1082.5,93.6c3.1,0,5.7.4,7.8,1.3,2.1.9,3.7,2.1,4.9,3.5,1.2,1.5,1.9,3,2.2,4.7l-9.7,3.2c-.3-1.8-.8-3.1-1.6-4-.8-.9-1.9-1.3-3.3-1.3s-2.4.3-3.3.9-1.6,1.5-2,2.8c-.5,1.3-.7,3-.7,5s.2,3.7.7,4.9c.5,1.3,1.2,2.2,2.1,2.7s2,.8,3.2.8,1.9-.2,2.6-.6,1.2-1,1.7-1.7.7-1.6.9-2.7l9.5,3c-.3,1.8-1.1,3.4-2.3,4.9-1.3,1.4-2.9,2.5-5,3.4-2.1.8-4.5,1.2-7.2,1.2s-6.3-.6-8.8-1.9-4.4-3.1-5.8-5.5-2-5.3-2-8.7.7-6.3,2-8.7c1.4-2.4,3.3-4.2,5.7-5.5,2.5-1.3,5.3-1.9,8.5-1.9v.2Z"/>
      <path class="st0" d="M1120.1,105.5c0-1.4-.4-2.6-1.2-3.4s-1.9-1.3-3.2-1.3-2.5.3-3.5,1-1.6,1.9-2,3.6l-8.9-2.1c.6-3,2.1-5.3,4.6-7.1,2.5-1.8,6-2.7,10.4-2.7s5.6.4,7.7,1.3,3.7,2.2,4.9,4c1.1,1.8,1.7,3.9,1.7,6.5v11.3c0,1.6.7,2.4,2.2,2.4s1.3,0,1.8-.2l-.6,6c-1.2.6-2.7.9-4.5.9s-3-.3-4.3-.8c-1.2-.5-2.2-1.3-2.9-2.3-.7-1.1-1.1-2.4-1.1-4v-.4l1.2-.4c0,1.8-.5,3.3-1.6,4.4-1.1,1.2-2.4,2.1-4.1,2.7s-3.4.9-5.2.9-3.9-.3-5.5-1-2.8-1.6-3.6-2.9c-.8-1.3-1.3-2.8-1.3-4.7s.7-4.1,2-5.5c1.3-1.5,3.5-2.5,6.3-3.1l11.7-2.4v5.6l-6,1.2c-1.2.2-2.2.6-2.7,1.1-.6.5-.9,1.2-.9,2.1s.3,1.6,1,2c.7.5,1.4.7,2.3.7s1.4,0,2-.3c.6-.2,1.2-.5,1.7-1,.5-.4.9-1,1.2-1.6.3-.7.4-1.4.4-2.3,0,0,0-8.2,0-8.2Z"/>
      <path class="st0" d="M1153.1,93.6c3.1,0,5.7.4,7.8,1.3,2.1.9,3.7,2.1,4.9,3.5,1.2,1.5,1.9,3,2.2,4.7l-9.7,3.2c-.3-1.8-.8-3.1-1.6-4-.8-.9-1.9-1.3-3.3-1.3s-2.4.3-3.3.9-1.6,1.5-2,2.8c-.5,1.3-.7,3-.7,5s.2,3.7.7,4.9c.5,1.3,1.2,2.2,2.1,2.7s2,.8,3.2.8,1.9-.2,2.6-.6,1.2-1,1.7-1.7.7-1.6.9-2.7l9.5,3c-.3,1.8-1.1,3.4-2.3,4.9-1.3,1.4-2.9,2.5-5,3.4-2.1.8-4.5,1.2-7.2,1.2s-6.3-.6-8.8-1.9-4.4-3.1-5.8-5.5-2-5.3-2-8.7.7-6.3,2-8.7c1.4-2.4,3.3-4.2,5.7-5.5,2.5-1.3,5.3-1.9,8.5-1.9v.2Z"/>
      <path class="st0" d="M1178.7,90.6c-2.1,0-3.7-.4-4.7-1.2s-1.5-2.1-1.5-3.8.5-3.1,1.5-3.9,2.5-1.2,4.7-1.2,3.6.4,4.6,1.2c1,.8,1.5,2.1,1.5,3.9s-.5,3-1.5,3.8-2.5,1.2-4.6,1.2ZM1184,94.2v30.9h-10.5v-30.9h10.5Z"/>
      <path class="st0" d="M1206.2,93.6c3.3,0,6.1.6,8.6,1.9s4.4,3.1,5.7,5.5c1.4,2.4,2.1,5.3,2.1,8.7s-.7,6.3-2.1,8.7c-1.4,2.4-3.3,4.2-5.7,5.5-2.5,1.3-5.3,1.9-8.6,1.9s-6-.6-8.5-1.9-4.4-3.1-5.8-5.5-2.1-5.3-2.1-8.7.7-6.3,2.1-8.7c1.4-2.4,3.3-4.2,5.8-5.5s5.3-1.9,8.5-1.9ZM1206.2,101.1c-1.2,0-2.2.3-3.1.9s-1.5,1.5-2,2.8-.7,2.9-.7,4.9.2,3.7.7,4.9c.5,1.3,1.1,2.2,2,2.8.9.6,1.9.9,3.1.9s2.3-.3,3.2-.9c.9-.6,1.5-1.5,2-2.8s.7-2.9.7-4.9-.2-3.7-.7-4.9c-.5-1.3-1.1-2.2-2-2.8-.9-.6-1.9-.9-3.2-.9Z"/>
      <path class="st0" d="M1228.5,125.1v-30.9h9.4l.6,10.6-1.2-1.2c.4-2.2,1.1-4.1,2.2-5.6s2.4-2.6,4-3.4,3.4-1.1,5.3-1.1,4,.4,5.6,1.2c1.6.8,2.8,2,3.7,3.6.9,1.6,1.4,3.6,1.4,6.1v20.6h-10.5v-17.8c0-2.1-.4-3.6-1.2-4.4-.8-.8-1.9-1.2-3.2-1.2s-1.9.2-2.8.7-1.5,1.2-2,2.3c-.5,1-.7,2.4-.7,4.1v16.4h-10.6Z"/>
      <path class="st0" d="M1281.8,125.7c-3.4,0-6.3-.6-8.8-1.9s-4.4-3.1-5.7-5.5c-1.3-2.4-2-5.3-2-8.7s.7-6.3,2-8.7c1.3-2.4,3.2-4.2,5.7-5.5s5.3-1.9,8.4-1.9,6,.6,8.3,1.9,4,3,5.2,5.2,1.8,4.7,1.8,7.6,0,1.5,0,2.3,0,1.3-.2,1.8h-24.5v-5.7h19.9l-5.1,2c0-2.5-.4-4.4-1.3-5.7-.9-1.3-2.3-2-4.1-2s-2.4.3-3.4.9c-.9.6-1.6,1.6-2.1,2.9s-.7,3-.7,5,.3,3.7.8,4.9c.5,1.2,1.3,2.1,2.3,2.7s2.2.9,3.6.9,2.8-.3,3.7-.9c.9-.6,1.6-1.5,2.1-2.6l8.4,2.8c-.6,1.7-1.6,3.2-3,4.4-1.4,1.2-3.1,2.1-5,2.7s-4,.9-6.2.9v.2Z"/>
      <path class="st0" d="M1315.5,125.7c-3.1,0-6-.5-8.6-1.5-2.7-1-4.9-2.5-6.6-4.4l4.9-5.8c1.1,1.3,2.5,2.4,4.1,3.3,1.7.9,3.6,1.3,5.7,1.3s2.4-.2,3.2-.5c.8-.3,1.2-.9,1.2-1.8s-.2-1-.6-1.4c-.4-.3-1.2-.7-2.5-1l-4.3-.8c-3.9-.8-6.7-1.9-8.3-3.5-1.6-1.5-2.5-3.6-2.5-6.1s.5-3.3,1.6-4.8,2.7-2.8,4.8-3.8c2.2-1,4.9-1.5,8.2-1.5s5.9.5,8.3,1.4,4.3,2.2,5.7,4l-5.1,5.7c-1-1.3-2.3-2.3-3.8-2.9-1.6-.7-3.2-1-4.8-1s-1.8,0-2.4.3c-.7.2-1.2.5-1.5.8-.3.4-.5.8-.5,1.2s.3,1,.8,1.4,1.5.7,2.9,1l5.6,1.1c3.2.6,5.5,1.6,6.9,3.2,1.4,1.5,2.1,3.4,2.1,5.6s-.5,3.7-1.6,5.3c-1.1,1.6-2.7,2.9-4.8,3.8-2.1.9-4.8,1.4-8.1,1.4h0Z"/>
    </g>
    <g>
      <path class="st0" d="M320.3,151.6c4.1,0,7.3,1,9.6,2.9s3.4,4.5,3.4,7.8-1.1,6.2-3.4,8.1c-2.3,1.9-5.5,2.8-9.6,2.8l-.8.5h-6.9v12.7h-8.9v-34.7h16.6,0ZM319.1,167.2c1.8,0,3.1-.4,3.9-1.1.9-.7,1.3-1.8,1.3-3.4s-.4-2.6-1.3-3.3-2.2-1.1-3.9-1.1h-6.4v8.8h6.4ZM324.4,169.1l11.1,17.2h-10l-8.9-15.2,7.8-2Z"/>
      <path class="st0" d="M351.8,186.8c-2.9,0-5.4-.5-7.5-1.6s-3.7-2.6-4.9-4.7c-1.1-2-1.7-4.5-1.7-7.4s.6-5.4,1.7-7.4,2.8-3.6,4.8-4.7c2.1-1.1,4.5-1.6,7.2-1.6s5.1.5,7,1.6,3.4,2.5,4.4,4.4,1.6,4,1.6,6.4,0,1.3,0,1.9,0,1.1-.2,1.6h-20.8v-4.8h16.9l-4.3,1.7c0-2.1-.4-3.7-1.1-4.8-.8-1.1-1.9-1.7-3.5-1.7s-2.1.3-2.9.8-1.4,1.3-1.8,2.4c-.4,1.1-.6,2.5-.6,4.3s.2,3.2.7,4.2c.5,1.1,1.1,1.8,1.9,2.3s1.9.7,3,.7,2.4-.3,3.2-.8,1.4-1.3,1.8-2.2l7.1,2.4c-.5,1.5-1.3,2.7-2.5,3.8-1.2,1-2.6,1.8-4.3,2.3-1.6.5-3.4.8-5.3.8h0Z"/>
      <path class="st0" d="M385.8,180.5c3,0,5.4.6,7,1.9s2.4,3.1,2.4,5.5-.6,4-1.8,5.4c-1.2,1.4-2.9,2.5-5,3.2-2.2.7-4.7,1.1-7.6,1.1-4.8,0-8.2-.6-10.3-1.8-2.1-1.2-3.2-2.8-3.2-4.8s.6-2.7,1.8-3.6c1.2-.9,3.2-1.4,5.9-1.5l-.2.8c-2.1-.3-3.7-.9-4.8-1.9-1.1-1-1.6-2.3-1.6-4s.7-3,2-4.1,3.1-1.6,5.3-1.7l3.3,1.5h-.8c-1.4,0-2.3.3-2.9.7s-.8.9-.8,1.4.2,1,.7,1.3,1.2.4,2.2.4h8.4v.2ZM381.2,159.5c2.7,0,4.9.4,6.8,1.1,1.9.7,3.3,1.7,4.3,3s1.5,2.9,1.5,4.9-.5,3.5-1.5,4.8-2.4,2.3-4.3,3-4.2,1-6.8,1c-4.2,0-7.3-.8-9.5-2.3s-3.2-3.7-3.2-6.6.5-3.5,1.5-4.9c1-1.3,2.4-2.3,4.3-3s4.2-1.1,6.9-1.1h0ZM380.9,191.8c1.7,0,3.1-.1,4.2-.3s1.9-.5,2.5-.9.8-.9.8-1.4-.2-.9-.6-1.2-1.1-.4-2.1-.4h-9.4c-.7,0-1.2.2-1.6.5s-.6.8-.6,1.3c0,.8.6,1.4,1.8,1.9,1.2.4,2.9.7,5,.7v-.2ZM381.2,164.6c-1.2,0-2.1.3-2.8,1-.7.7-1.1,1.6-1.1,2.8s.4,2.1,1.1,2.8,1.7,1,2.8,1,2-.3,2.8-1c.7-.7,1.1-1.6,1.1-2.8s-.4-2.2-1.1-2.8c-.7-.7-1.7-1-2.8-1ZM394.9,153l.7,6c-.2,0-.4-.1-.6-.1h-.6c-1.5,0-2.7.4-3.4,1.1-.8.8-1.1,1.7-1.1,2.8l-3.2-1.2c0-1.4.3-2.8.8-4.2s1.3-2.4,2.4-3.3,2.5-1.3,4.2-1.3h.8v.2Z"/>
      <path class="st0" d="M403.3,157c-1.8,0-3.1-.3-4-1-.8-.7-1.2-1.8-1.2-3.2s.4-2.6,1.2-3.3c.8-.7,2.1-1,4-1s3.1.3,3.9,1,1.3,1.8,1.3,3.3-.4,2.5-1.3,3.2c-.8.7-2.2,1-3.9,1ZM407.8,160v26.3h-8.9v-26.3h8.9Z"/>
      <path class="st0" d="M426.7,159.5c2.8,0,5.2.5,7.3,1.6,2.1,1.1,3.7,2.6,4.9,4.7s1.8,4.5,1.8,7.4-.6,5.3-1.8,7.4-2.8,3.6-4.9,4.7c-2.1,1.1-4.5,1.6-7.3,1.6s-5.1-.5-7.2-1.6-3.7-2.6-4.9-4.7c-1.2-2-1.8-4.5-1.8-7.4s.6-5.3,1.8-7.4c1.2-2,2.8-3.6,4.9-4.7,2.1-1.1,4.5-1.6,7.2-1.6ZM426.7,165.9c-1,0-1.9.2-2.6.7s-1.3,1.3-1.7,2.4c-.4,1.1-.6,2.5-.6,4.2s.2,3.1.6,4.2c.4,1.1.9,1.9,1.7,2.4.7.5,1.6.8,2.6.8s1.9-.3,2.7-.8c.7-.5,1.3-1.3,1.7-2.4.4-1.1.6-2.5.6-4.2s-.2-3.1-.6-4.2-.9-1.9-1.7-2.4c-.7-.5-1.6-.7-2.7-.7Z"/>
      <path class="st0" d="M445.6,186.3v-26.3h8l.5,9-1-1c.3-1.9,1-3.5,1.9-4.7s2-2.2,3.4-2.9c1.3-.6,2.9-1,4.5-1s3.4.4,4.8,1.1c1.3.7,2.4,1.7,3.2,3.1.8,1.4,1.2,3.1,1.2,5.2v17.5h-8.9v-15.1c0-1.8-.4-3.1-1.1-3.8s-1.6-1.1-2.7-1.1-1.6.2-2.4.6c-.7.4-1.3,1-1.7,1.9-.4.9-.6,2-.6,3.5v13.9h-9.1Z"/>
      <path class="st0" d="M492.9,169.6c0-1.2-.3-2.2-1-2.9s-1.6-1.1-2.8-1.1-2.1.3-3,.9c-.8.6-1.4,1.6-1.7,3.1l-7.6-1.8c.5-2.5,1.8-4.5,3.9-6s5.1-2.3,8.9-2.3,4.7.4,6.5,1.1c1.8.8,3.2,1.9,4.2,3.4s1.4,3.3,1.4,5.5v9.6c0,1.4.6,2,1.8,2s1.1,0,1.5-.2l-.5,5.1c-1.1.5-2.3.7-3.8.7s-2.6-.2-3.6-.7c-1.1-.4-1.9-1.1-2.5-2s-.9-2-.9-3.4v-.3l1-.4c0,1.5-.4,2.8-1.3,3.8s-2.1,1.8-3.5,2.3-2.9.7-4.4.7-3.3-.3-4.7-.8c-1.3-.6-2.4-1.4-3.1-2.4-.7-1.1-1.1-2.4-1.1-4s.6-3.5,1.7-4.7,2.9-2.1,5.4-2.6l9.9-2v4.7l-5.1,1.1c-1.1.2-1.8.5-2.3.9s-.8,1-.8,1.8.3,1.3.8,1.7c.6.4,1.2.6,2,.6s1.2,0,1.7-.3c.5-.2,1-.4,1.4-.8.4-.4.8-.8,1-1.4.2-.6.4-1.2.4-2v-6.9h.2Z"/>
      <path class="st0" d="M517.5,148.9v28.5c0,1.2.2,2,.6,2.5.4.5,1,.7,1.9.7s1,0,1.3-.1c.3,0,.8-.2,1.3-.3l-.6,5.4c-.6.4-1.5.7-2.5.9s-2,.4-3,.4c-2.8,0-4.8-.6-6.1-1.9-1.3-1.3-1.9-3.4-1.9-6.4v-29.6h9Z"/>
      <path class="st0" d="M555.5,151.6c5.4,0,9.6,1.5,12.5,4.5s4.3,7.3,4.3,12.8-1.4,9.8-4.3,12.8c-2.9,3-7.1,4.5-12.5,4.5h-14.7v-34.7h14.7ZM554.6,179.5c2.9,0,5.1-.9,6.4-2.7,1.3-1.8,2-4.4,2-7.9s-.7-6.1-2-7.9c-1.3-1.8-3.5-2.7-6.4-2.7h-4.8v21h4.8v.2Z"/>
      <path class="st0" d="M582.2,157c-1.8,0-3.1-.3-4-1-.8-.7-1.2-1.8-1.2-3.2s.4-2.6,1.2-3.3,2.1-1,4-1,3.1.3,3.9,1c.8.7,1.3,1.8,1.3,3.3s-.4,2.5-1.3,3.2c-.8.7-2.2,1-3.9,1ZM586.7,160v26.3h-8.9v-26.3h8.9Z"/>
      <path class="st0" d="M604.1,186.8c-2.6,0-5.1-.4-7.3-1.3-2.3-.9-4.1-2.1-5.7-3.7l4.2-4.9c.9,1.1,2.1,2.1,3.5,2.8,1.4.8,3,1.1,4.8,1.1s2-.1,2.7-.4c.7-.3,1.1-.8,1.1-1.5s-.2-.9-.5-1.2c-.4-.3-1.1-.6-2.1-.8l-3.6-.7c-3.3-.7-5.7-1.7-7.1-3-1.4-1.3-2.1-3-2.1-5.2s.4-2.8,1.3-4.1c.9-1.3,2.3-2.4,4.1-3.2s4.2-1.3,7-1.3,5,.4,7,1.2,3.7,1.9,4.9,3.4l-4.3,4.8c-.8-1.1-1.9-1.9-3.3-2.5-1.3-.6-2.7-.9-4-.9s-1.5,0-2.1.2-1,.4-1.3.7-.4.6-.4,1,.2.9.7,1.2c.4.3,1.3.6,2.4.9l4.8.9c2.7.5,4.6,1.4,5.8,2.7s1.8,2.9,1.8,4.7-.5,3.2-1.4,4.5-2.3,2.5-4.1,3.3-4.1,1.2-6.9,1.2h0Z"/>
      <path class="st0" d="M639.9,160v6.4h-21.3v-6.4h21.3ZM632.1,151.7v25.3c0,1.3.3,2.2.9,2.7.6.5,1.5.8,2.5.8s1.6,0,2.2-.3c.6-.2,1.2-.5,1.7-.9l.9,5.5c-.9.6-2,1.1-3.3,1.5-1.3.3-2.7.5-4.1.5-2,0-3.7-.3-5.2-.8s-2.6-1.5-3.4-2.7c-.8-1.2-1.2-2.9-1.2-4.9v-24.3l8.9-2.5h0Z"/>
      <path class="st0" d="M644,186.3v-26.3h7.9l.4,5.7c.7-2,1.7-3.5,3-4.6s3-1.6,5-1.6,1.2,0,1.7.2c.5.1.8.2,1.1.4l-.9,7.4c-.4-.1-.8-.3-1.3-.3s-1.2-.1-2-.1-2,.2-2.9.7-1.6,1.1-2.2,2c-.5.9-.8,2-.8,3.4v13.2h-9Z"/>
      <path class="st0" d="M671.1,157c-1.8,0-3.1-.3-4-1-.8-.7-1.2-1.8-1.2-3.2s.4-2.6,1.2-3.3,2.1-1,4-1,3.1.3,3.9,1c.8.7,1.3,1.8,1.3,3.3s-.4,2.5-1.3,3.2c-.8.7-2.2,1-3.9,1ZM675.6,160v26.3h-8.9v-26.3h8.9Z"/>
      <path class="st0" d="M700.8,160v6.4h-21.3v-6.4h21.3ZM692.9,151.7v25.3c0,1.3.3,2.2.9,2.7.6.5,1.5.8,2.5.8s1.6,0,2.2-.3c.6-.2,1.2-.5,1.7-.9l.9,5.5c-.9.6-2,1.1-3.3,1.5-1.3.3-2.7.5-4.1.5-2,0-3.7-.3-5.2-.8s-2.6-1.5-3.4-2.7c-.8-1.2-1.2-2.9-1.2-4.9v-24.3l8.9-2.5h0Z"/>
      <path class="st0" d="M717.4,159.5c2.8,0,5.2.5,7.3,1.6s3.7,2.6,4.9,4.7,1.8,4.5,1.8,7.4-.6,5.3-1.8,7.4-2.8,3.6-4.9,4.7c-2.1,1.1-4.5,1.6-7.3,1.6s-5.1-.5-7.2-1.6c-2.1-1.1-3.7-2.6-4.9-4.7-1.2-2-1.8-4.5-1.8-7.4s.6-5.3,1.8-7.4c1.2-2,2.8-3.6,4.9-4.7,2.1-1.1,4.5-1.6,7.2-1.6ZM717.4,165.9c-1,0-1.9.2-2.6.7-.7.5-1.3,1.3-1.7,2.4-.4,1.1-.6,2.5-.6,4.2s.2,3.1.6,4.2c.4,1.1.9,1.9,1.7,2.4.7.5,1.6.8,2.6.8s1.9-.3,2.7-.8c.7-.5,1.3-1.3,1.7-2.4.4-1.1.6-2.5.6-4.2s-.2-3.1-.6-4.2-.9-1.9-1.7-2.4c-.7-.5-1.6-.7-2.7-.7Z"/>
      <path class="st0" d="M782.8,176.4c-.7,2.4-1.7,4.4-3.2,6s-3.2,2.7-5.3,3.4c-2,.7-4.3,1.1-6.7,1.1-3.5,0-6.5-.7-9.1-2.1-2.6-1.4-4.5-3.5-5.9-6.1-1.4-2.7-2.1-5.9-2.1-9.6s.7-7,2.1-9.6c1.4-2.7,3.3-4.7,5.9-6.1,2.6-1.4,5.6-2.1,9-2.1s4.6.3,6.7,1c2,.7,3.7,1.7,5.2,3.1,1.4,1.4,2.4,3.2,3,5.4l-7.9,3.2c-.5-2.2-1.3-3.7-2.4-4.5-1.1-.8-2.5-1.2-4.2-1.2s-3.1.4-4.3,1.2-2.1,2-2.8,3.6c-.6,1.6-1,3.6-1,6s.3,4.3.9,5.9c.6,1.6,1.5,2.8,2.7,3.6s2.7,1.2,4.5,1.2,3.1-.5,4.3-1.4,2-2.4,2.4-4.3l8.2,2.3h0Z"/>
      <path class="st0" d="M801.9,169.6c0-1.2-.3-2.2-1-2.9s-1.6-1.1-2.8-1.1-2.1.3-3,.9c-.8.6-1.4,1.6-1.7,3.1l-7.6-1.8c.5-2.5,1.8-4.5,3.9-6,2.1-1.5,5.1-2.3,8.9-2.3s4.7.4,6.5,1.1c1.8.8,3.2,1.9,4.2,3.4s1.4,3.3,1.4,5.5v9.6c0,1.4.6,2,1.8,2s1.1,0,1.5-.2l-.5,5.1c-1.1.5-2.3.7-3.8.7s-2.6-.2-3.6-.7c-1.1-.4-1.9-1.1-2.5-2s-.9-2-.9-3.4v-.3l1-.4c0,1.5-.4,2.8-1.3,3.8-.9,1-2.1,1.8-3.5,2.3s-2.9.7-4.4.7-3.3-.3-4.7-.8c-1.3-.6-2.4-1.4-3.1-2.4-.7-1.1-1.1-2.4-1.1-4s.6-3.5,1.7-4.7c1.1-1.2,2.9-2.1,5.4-2.6l9.9-2v4.7l-5.1,1.1c-1.1.2-1.8.5-2.3.9s-.8,1-.8,1.8.3,1.3.8,1.7c.6.4,1.2.6,2,.6s1.2,0,1.7-.3c.5-.2,1-.4,1.4-.8.4-.4.8-.8,1-1.4.2-.6.4-1.2.4-2v-6.9h.2Z"/>
      <path class="st0" d="M817.6,197.3v-37.3h8l.5,9.5-1.1-1.1c.2-1.8.8-3.3,1.6-4.6s1.9-2.4,3.3-3.2c1.3-.8,2.9-1.2,4.6-1.2s4.1.5,5.7,1.6c1.6,1.1,2.9,2.6,3.8,4.6.9,2,1.3,4.5,1.3,7.3s-.5,5.3-1.4,7.4c-.9,2.1-2.2,3.6-3.8,4.7s-3.5,1.6-5.7,1.6-4.3-.7-5.8-2.1c-1.5-1.4-2.5-3.2-2.9-5.4l.8-1.3v19.3h-8.9v.2ZM831.4,180.3c1.5,0,2.8-.6,3.6-1.7.9-1.1,1.3-2.9,1.3-5.4s-.4-4.2-1.3-5.4c-.9-1.1-2.1-1.7-3.6-1.7s-1.8.3-2.6.8-1.3,1.3-1.7,2.4c-.4,1.1-.6,2.3-.6,3.9s.2,2.7.6,3.8c.4,1.1.9,1.9,1.7,2.4.7.6,1.6.8,2.6.8h0Z"/>
      <path class="st0" d="M855.1,157c-1.8,0-3.1-.3-4-1-.8-.7-1.2-1.8-1.2-3.2s.4-2.6,1.2-3.3,2.1-1,4-1,3.1.3,3.9,1c.8.7,1.3,1.8,1.3,3.3s-.4,2.5-1.3,3.2c-.8.7-2.2,1-3.9,1ZM859.5,160v26.3h-8.9v-26.3h8.9Z"/>
      <path class="st0" d="M884.7,160v6.4h-21.3v-6.4h21.3ZM876.9,151.7v25.3c0,1.3.3,2.2.9,2.7.6.5,1.5.8,2.5.8s1.6,0,2.2-.3c.6-.2,1.2-.5,1.7-.9l.9,5.5c-.9.6-2,1.1-3.3,1.5-1.3.3-2.7.5-4.1.5-2,0-3.7-.3-5.2-.8s-2.6-1.5-3.4-2.7c-.8-1.2-1.2-2.9-1.2-4.9v-24.3l8.9-2.5h0Z"/>
      <path class="st0" d="M903.9,169.6c0-1.2-.3-2.2-1-2.9s-1.6-1.1-2.8-1.1-2.1.3-3,.9c-.8.6-1.4,1.6-1.7,3.1l-7.6-1.8c.5-2.5,1.8-4.5,3.9-6,2.1-1.5,5.1-2.3,8.9-2.3s4.7.4,6.5,1.1c1.8.8,3.2,1.9,4.2,3.4s1.4,3.3,1.4,5.5v9.6c0,1.4.6,2,1.8,2s1.1,0,1.5-.2l-.5,5.1c-1.1.5-2.3.7-3.8.7s-2.6-.2-3.6-.7c-1.1-.4-1.9-1.1-2.5-2s-.9-2-.9-3.4v-.3l1-.4c0,1.5-.4,2.8-1.3,3.8-.9,1-2.1,1.8-3.5,2.3s-2.9.7-4.4.7-3.3-.3-4.7-.8c-1.3-.6-2.4-1.4-3.1-2.4-.7-1.1-1.1-2.4-1.1-4s.6-3.5,1.7-4.7c1.1-1.2,2.9-2.1,5.4-2.6l9.9-2v4.7l-5.1,1.1c-1.1.2-1.8.5-2.3.9s-.8,1-.8,1.8.3,1.3.8,1.7c.6.4,1.2.6,2,.6s1.2,0,1.7-.3c.5-.2,1-.4,1.4-.8.4-.4.8-.8,1-1.4.2-.6.4-1.2.4-2v-6.9h.2Z"/>
      <path class="st0" d="M928.5,148.9v28.5c0,1.2.2,2,.6,2.5.4.5,1,.7,1.9.7s1,0,1.3-.1c.3,0,.8-.2,1.3-.3l-.6,5.4c-.6.4-1.5.7-2.5.9s-2,.4-3,.4c-2.8,0-4.8-.6-6.1-1.9-1.3-1.3-1.9-3.4-1.9-6.4v-29.6h9Z"/>
    </g>
    <g>
      <path class="st0" d="M342,44.4c-.8,2.8-2,5.2-3.8,7-1.7,1.8-3.8,3.2-6.2,4-2.4.8-5,1.3-7.9,1.3s-7.7-.8-10.7-2.5-5.3-4.1-6.9-7.2c-1.6-3.1-2.4-6.9-2.4-11.3s.8-8.2,2.4-11.3c1.6-3.1,3.9-5.5,6.9-7.2,3-1.7,6.5-2.5,10.6-2.5s5.5.4,7.8,1.2c2.4.8,4.4,2,6.1,3.7,1.6,1.6,2.8,3.8,3.5,6.4l-9.3,3.8c-.6-2.6-1.5-4.3-2.8-5.3-1.3-.9-2.9-1.4-4.9-1.4s-3.6.5-5,1.4-2.5,2.4-3.3,4.2c-.8,1.9-1.1,4.2-1.1,7s.3,5.1,1.1,7c.7,1.9,1.8,3.3,3.2,4.3,1.4.9,3.2,1.4,5.3,1.4s3.7-.5,5-1.6c1.4-1.1,2.3-2.8,2.8-5l9.6,2.7h0Z"/>
      <path class="st0" d="M362.2,56.7c-3.4,0-6.3-.6-8.8-1.9-2.5-1.3-4.4-3.1-5.7-5.5-1.3-2.4-2-5.3-2-8.7s.7-6.3,2-8.7c1.3-2.4,3.2-4.2,5.7-5.5s5.3-1.9,8.4-1.9,6,.6,8.3,1.9,4,3,5.2,5.2,1.8,4.7,1.8,7.6,0,1.5,0,2.3-.1,1.3-.2,1.8h-24.5v-5.7h19.9l-5.1,2c0-2.5-.4-4.4-1.3-5.7s-2.3-2-4.1-2-2.4.3-3.4.9c-.9.6-1.6,1.6-2.1,2.9-.5,1.3-.7,3-.7,5s.3,3.7.8,4.9,1.3,2.1,2.3,2.7c1,.6,2.2.9,3.6.9s2.8-.3,3.7-.9c.9-.6,1.6-1.5,2.1-2.6l8.4,2.8c-.6,1.7-1.6,3.2-3,4.4s-3.1,2.1-5,2.7c-1.9.6-4,.9-6.2.9v.2Z"/>
      <path class="st0" d="M383,56v-30.9h9.4l.6,10.6-1.2-1.2c.4-2.2,1.1-4.1,2.2-5.6s2.4-2.6,4-3.4,3.4-1.1,5.3-1.1,4,.4,5.6,1.2c1.6.8,2.8,2,3.7,3.6.9,1.6,1.4,3.6,1.4,6.1v20.6h-10.5v-17.8c0-2.1-.4-3.6-1.2-4.4-.8-.8-1.9-1.2-3.2-1.2s-1.9.2-2.8.7-1.5,1.2-2,2.3c-.5,1-.7,2.4-.7,4.1v16.4h-10.6Z"/>
      <path class="st0" d="M443.2,25.1v7.5h-25v-7.5s25,0,25,0ZM434,15.3v29.7c0,1.5.4,2.5,1.1,3.2.7.6,1.7,1,3,1s1.8,0,2.6-.3c.7-.2,1.4-.6,1.9-1l1.1,6.5c-1,.7-2.3,1.3-3.9,1.7s-3.2.6-4.8.6c-2.3,0-4.4-.3-6.1-1s-3-1.7-4-3.2c-.9-1.4-1.4-3.4-1.4-5.7v-28.5l10.5-2.9h0Z"/>
      <path class="st0" d="M448.1,56v-30.9h9.3l.4,6.7c.8-2.3,1.9-4.1,3.5-5.4,1.5-1.3,3.5-1.9,5.9-1.9s1.5,0,2,.2,1,.3,1.3.5l-1.1,8.7c-.4-.2-.9-.3-1.6-.4-.6,0-1.4-.2-2.3-.2s-2.4.3-3.5.8-1.9,1.3-2.6,2.4c-.6,1.1-1,2.4-1,4v15.6h-10.5.2Z"/>
      <path class="st0" d="M489,24.5c3.3,0,6.1.6,8.6,1.9s4.4,3.1,5.7,5.5c1.4,2.4,2.1,5.3,2.1,8.7s-.7,6.3-2.1,8.7-3.3,4.2-5.7,5.5c-2.5,1.3-5.3,1.9-8.6,1.9s-6-.6-8.5-1.9c-2.5-1.3-4.4-3.1-5.8-5.5s-2.1-5.3-2.1-8.7.7-6.3,2.1-8.7c1.4-2.4,3.3-4.2,5.8-5.5s5.3-1.9,8.5-1.9ZM489,32c-1.2,0-2.2.3-3.1.9-.9.6-1.5,1.5-2,2.8s-.7,2.9-.7,4.9.2,3.7.7,4.9c.5,1.3,1.1,2.2,2,2.8s1.9.9,3.1.9,2.3-.3,3.2-.9c.9-.6,1.5-1.5,2-2.8s.7-2.9.7-4.9-.2-3.7-.7-4.9c-.5-1.3-1.1-2.2-2-2.8s-1.9-.9-3.2-.9Z"/>
      <path class="st0" d="M540.4,56.7c-2.6,0-4.8-.6-6.7-1.9-1.9-1.3-3.4-3.1-4.4-5.5-1.1-2.4-1.6-5.3-1.6-8.6s.5-6.4,1.6-8.8c1.1-2.4,2.6-4.2,4.6-5.5s4.2-1.9,6.8-1.9,5.1.9,6.8,2.6,2.8,3.9,3.3,6.5l-1,1.3V12h10.5v44h-9.4l-.7-10.5,1.2.9c-.2,2.1-.9,3.9-1.9,5.4s-2.3,2.7-3.8,3.6c-1.5.8-3.3,1.3-5.3,1.3h0ZM544,48.9c1.2,0,2.2-.3,3.1-1,.8-.6,1.5-1.6,1.9-2.9.5-1.3.7-2.8.7-4.7s-.2-3.2-.6-4.4c-.4-1.2-1.1-2.1-1.9-2.8-.8-.6-1.9-1-3.1-1-1.8,0-3.2.7-4.3,2s-1.6,3.5-1.6,6.3.5,5,1.5,6.3,2.5,2,4.3,2v.2Z"/>
      <path class="st0" d="M582.8,56.7c-3.4,0-6.3-.6-8.8-1.9-2.5-1.3-4.4-3.1-5.7-5.5s-2-5.3-2-8.7.7-6.3,2-8.7c1.3-2.4,3.2-4.2,5.7-5.5s5.3-1.9,8.4-1.9,6,.6,8.3,1.9,4,3,5.2,5.2,1.8,4.7,1.8,7.6,0,1.5,0,2.3,0,1.3-.2,1.8h-24.5v-5.7h19.9l-5.1,2c0-2.5-.4-4.4-1.3-5.7-.9-1.3-2.3-2-4.1-2s-2.4.3-3.4.9c-.9.6-1.6,1.6-2.1,2.9-.5,1.3-.7,3-.7,5s.3,3.7.8,4.9,1.3,2.1,2.3,2.7c1,.6,2.2.9,3.6.9s2.8-.3,3.7-.9c.9-.6,1.6-1.5,2.1-2.6l8.4,2.8c-.6,1.7-1.6,3.2-3,4.4s-3.1,2.1-5,2.7c-1.9.6-4,.9-6.2.9v.2Z"/>
      <path class="st0" d="M621.9,56V15.3h31.8v8.2h-21.1v8.3h16.8v7.7h-16.8v8.3h21.9v8.2h-32.6Z"/>
      <path class="st0" d="M670.6,12v33.5c0,1.4.2,2.3.7,2.9.5.6,1.2.9,2.3.9s1.1,0,1.5,0c.4,0,.9-.2,1.5-.4l-.7,6.3c-.7.5-1.7.8-2.9,1.1s-2.4.4-3.5.4c-3.3,0-5.7-.8-7.2-2.3s-2.2-4-2.2-7.5V12h10.5Z"/>
      <path class="st0" d="M695.4,56.7c-3.4,0-6.3-.6-8.8-1.9-2.5-1.3-4.4-3.1-5.7-5.5s-2-5.3-2-8.7.7-6.3,2-8.7c1.3-2.4,3.2-4.2,5.7-5.5s5.3-1.9,8.4-1.9,6,.6,8.3,1.9,4,3,5.2,5.2,1.8,4.7,1.8,7.6,0,1.5,0,2.3,0,1.3-.2,1.8h-24.5v-5.7h19.9l-5.1,2c0-2.5-.4-4.4-1.3-5.7-.9-1.3-2.3-2-4.1-2s-2.4.3-3.4.9c-.9.6-1.6,1.6-2.1,2.9-.5,1.3-.7,3-.7,5s.3,3.7.8,4.9,1.3,2.1,2.3,2.7c1,.6,2.2.9,3.6.9s2.8-.3,3.7-.9c.9-.6,1.6-1.5,2.1-2.6l8.4,2.8c-.6,1.7-1.6,3.2-3,4.4s-3.1,2.1-5,2.7c-1.9.6-4,.9-6.2.9v.2Z"/>
      <path class="st0" d="M730.8,24.5c3.1,0,5.7.4,7.8,1.3s3.7,2.1,4.9,3.5c1.2,1.5,1.9,3,2.2,4.7l-9.7,3.2c-.3-1.8-.8-3.1-1.6-4s-1.9-1.3-3.3-1.3-2.4.3-3.3.9c-.9.6-1.6,1.5-2,2.8-.5,1.3-.7,3-.7,5s.2,3.7.7,4.9c.5,1.3,1.2,2.2,2.1,2.7s2,.8,3.2.8,1.9-.2,2.6-.6c.7-.4,1.2-1,1.7-1.7s.7-1.6.9-2.7l9.5,3c-.3,1.8-1.1,3.4-2.3,4.9-1.3,1.4-2.9,2.5-5,3.4-2.1.8-4.5,1.2-7.2,1.2s-6.3-.6-8.8-1.9c-2.5-1.3-4.4-3.1-5.8-5.5-1.4-2.4-2-5.3-2-8.7s.7-6.3,2-8.7c1.4-2.4,3.3-4.2,5.7-5.5,2.5-1.3,5.3-1.9,8.5-1.9v.2Z"/>
      <path class="st0" d="M773.3,25.1v7.5h-25v-7.5s25,0,25,0ZM764.1,15.3v29.7c0,1.5.4,2.5,1.1,3.2.7.6,1.7,1,3,1s1.8,0,2.6-.3c.7-.2,1.4-.6,1.9-1l1.1,6.5c-1,.7-2.3,1.3-3.9,1.7s-3.2.6-4.8.6c-2.3,0-4.4-.3-6.1-1-1.7-.7-3-1.7-4-3.2-.9-1.4-1.4-3.4-1.5-5.7v-28.5l10.5-2.9h.1Z"/>
      <path class="st0" d="M778.2,56v-30.9h9.3l.4,6.7c.8-2.3,1.9-4.1,3.5-5.4,1.5-1.3,3.5-1.9,5.9-1.9s1.5,0,2,.2,1,.3,1.3.5l-1.1,8.7c-.4-.2-.9-.3-1.6-.4-.6,0-1.4-.2-2.3-.2s-2.4.3-3.5.8-1.9,1.3-2.6,2.4c-.6,1.1-1,2.4-1,4v15.6h-10.5.2Z"/>
      <path class="st0" d="M810,21.6c-2.1,0-3.7-.4-4.7-1.2s-1.5-2.1-1.5-3.8.5-3.1,1.5-3.9c1-.8,2.5-1.2,4.7-1.2s3.6.4,4.6,1.2,1.5,2.1,1.5,3.9-.5,3-1.5,3.8-2.5,1.2-4.6,1.2ZM815.3,25.1v30.9h-10.5v-30.9h10.5Z"/>
      <path class="st0" d="M837.4,24.5c3.1,0,5.7.4,7.8,1.3s3.7,2.1,4.9,3.5c1.2,1.5,1.9,3,2.2,4.7l-9.7,3.2c-.3-1.8-.8-3.1-1.6-4s-1.9-1.3-3.3-1.3-2.4.3-3.3.9c-.9.6-1.6,1.5-2,2.8-.5,1.3-.7,3-.7,5s.2,3.7.7,4.9c.5,1.3,1.2,2.2,2.1,2.7s2,.8,3.2.8,1.9-.2,2.6-.6c.7-.4,1.2-1,1.7-1.7s.7-1.6.9-2.7l9.5,3c-.3,1.8-1.1,3.4-2.3,4.9-1.3,1.4-2.9,2.5-5,3.4-2.1.8-4.5,1.2-7.2,1.2s-6.3-.6-8.8-1.9c-2.5-1.3-4.4-3.1-5.8-5.5-1.4-2.4-2-5.3-2-8.7s.7-6.3,2-8.7c1.4-2.4,3.3-4.2,5.7-5.5,2.5-1.3,5.3-1.9,8.5-1.9v.2Z"/>
      <path class="st0" d="M863,21.6c-2.1,0-3.7-.4-4.7-1.2s-1.5-2.1-1.5-3.8.5-3.1,1.5-3.9c1-.8,2.5-1.2,4.7-1.2s3.6.4,4.6,1.2,1.5,2.1,1.5,3.9-.5,3-1.5,3.8-2.5,1.2-4.6,1.2ZM868.3,25.1v30.9h-10.5v-30.9h10.5Z"/>
      <path class="st0" d="M887.1,56.7c-2.6,0-4.8-.6-6.7-1.9-1.9-1.3-3.4-3.1-4.4-5.5-1.1-2.4-1.6-5.3-1.6-8.6s.5-6.4,1.6-8.8c1.1-2.4,2.6-4.2,4.6-5.5s4.2-1.9,6.8-1.9,5.1.9,6.8,2.6,2.8,3.9,3.3,6.5l-1,1.3V12h10.5v44h-9.4l-.7-10.5,1.2.9c-.2,2.1-.9,3.9-1.9,5.4s-2.3,2.7-3.8,3.6c-1.5.8-3.3,1.3-5.3,1.3h0ZM890.8,48.9c1.2,0,2.2-.3,3.1-1,.8-.6,1.5-1.6,1.9-2.9.5-1.3.7-2.8.7-4.7s-.2-3.2-.6-4.4c-.4-1.2-1.1-2.1-1.9-2.8-.8-.6-1.9-1-3.1-1-1.8,0-3.2.7-4.3,2s-1.6,3.5-1.6,6.3.5,5,1.5,6.3,2.5,2,4.3,2v.2Z"/>
      <path class="st0" d="M931.7,36.4c0-1.4-.4-2.6-1.2-3.4-.8-.8-1.9-1.3-3.2-1.3s-2.5.3-3.5,1-1.6,1.9-2,3.6l-8.9-2.1c.6-3,2.1-5.3,4.6-7.1,2.5-1.8,6-2.7,10.4-2.7s5.6.4,7.7,1.3c2.1.9,3.7,2.2,4.9,4,1.1,1.8,1.7,3.9,1.7,6.5v11.3c0,1.6.7,2.4,2.2,2.4s1.3,0,1.8-.2l-.6,6c-1.2.6-2.7.9-4.5.9s-3-.3-4.3-.8c-1.2-.5-2.2-1.3-2.9-2.3-.7-1.1-1.1-2.4-1.1-4v-.4l1.2-.4c0,1.8-.5,3.3-1.6,4.4-1.1,1.2-2.4,2.1-4.1,2.7s-3.4.9-5.2.9-3.9-.3-5.5-1-2.8-1.6-3.6-2.9c-.8-1.3-1.3-2.8-1.3-4.7s.7-4.1,2-5.5c1.3-1.5,3.5-2.5,6.3-3.1l11.7-2.4v5.6l-6,1.2c-1.2.2-2.2.6-2.7,1.1-.6.5-.9,1.2-.9,2.1s.3,1.6,1,2c.7.5,1.4.7,2.3.7s1.4,0,2-.3,1.2-.5,1.7-1c.5-.4.9-1,1.2-1.6.3-.7.4-1.4.4-2.3v-8.2h0Z"/>
      <path class="st0" d="M961.4,56.7c-2.6,0-4.8-.6-6.7-1.9-1.9-1.3-3.4-3.1-4.4-5.5-1.1-2.4-1.6-5.3-1.6-8.6s.5-6.4,1.6-8.8c1.1-2.4,2.6-4.2,4.6-5.5s4.2-1.9,6.8-1.9,5.1.9,6.8,2.6,2.8,3.9,3.3,6.5l-1,1.3V12h10.5v44h-9.4l-.7-10.5,1.2.9c-.2,2.1-.9,3.9-1.9,5.4s-2.3,2.7-3.8,3.6c-1.5.8-3.3,1.3-5.3,1.3h0ZM965.1,48.9c1.2,0,2.2-.3,3.1-1,.8-.6,1.5-1.6,1.9-2.9.5-1.3.7-2.8.7-4.7s-.2-3.2-.6-4.4c-.4-1.2-1.1-2.1-1.9-2.8-.8-.6-1.9-1-3.1-1-1.8,0-3.2.7-4.3,2s-1.6,3.5-1.6,6.3.5,5,1.5,6.3,2.5,2,4.3,2v.2Z"/>
    </g>
  </g>
  <rect class="st0" x="253.9" y="11.2" width="2.9" height="191.7"/>
</svg>