<?xml version="1.0" encoding="UTF-8"?>
<svg id="Capa_1" xmlns="http://www.w3.org/2000/svg" version="1.1" viewBox="0 0 510.2 212.6">
  <!-- Generator: Adobe Illustrator 30.1.0, SVG Export Plug-In . SVG Version: 2.1.1 Build 136)  -->
  <defs>
    <style>
      .st0, .st1 {
        fill: #fff;
      }

      .st1 {
        stroke: #5b5a5a;
        stroke-miterlimit: 10;
        stroke-width: 3px;
      }
    </style>
  </defs>
  <path class="st0" d="M409.5,88.2l11.2-1c.8,0,1.5.5,1.6,1.3.5,4.4,2.1,8.7,4.5,12.5,2.5,3.6,6.2,6.5,11.4,8.8,5.5,2.3,11.4,3.5,17.4,3.4,5.2,0,10.3-.8,15.1-2.5,3.9-1.3,7.3-3.8,9.8-7,2.1-2.8,3.2-6.2,3.2-9.7s-1-6.6-3.1-9.3c-2.1-2.7-5.5-4.9-10.2-6.7-3-1.2-9.8-3-20.1-5.5s-17.7-4.8-21.9-7c-4.9-2.4-9.1-6-12.1-10.5-2.7-4.2-4.1-9.1-4-14.1,0-5.7,1.7-11.3,4.9-16,3.5-5.1,8.4-9.1,14.2-11.3,6.6-2.7,13.7-4,20.8-3.9,7.6-.1,15.1,1.2,22.2,4,6,2.4,11.1,6.6,14.7,12,3.2,4.9,5.1,10.5,5.5,16.3,0,.8-.6,1.6-1.4,1.6l-11.4.8c-.8,0-1.5-.5-1.6-1.3-1-6.4-3.5-11.4-7.7-14.8-4.4-3.7-11-5.5-19.7-5.5s-15.7,1.7-19.8,5c-4.1,3.3-6.2,7.3-6.2,12s1.5,7.5,4.4,10c2.9,2.6,10.4,5.3,22.6,8.1s20.5,5.2,25.1,7.2c6.6,3,11.4,6.9,14.6,11.5,3.2,4.8,4.8,10.4,4.8,16.1s-1.8,12-5.2,17c-3.6,5.5-8.8,9.8-14.8,12.4-6.9,3-14.3,4.6-21.9,4.4-10.2,0-18.8-1.5-25.8-4.5-6.7-2.8-12.3-7.4-16.3-13.5-3.7-5.6-5.8-12.2-6.1-18.9,0-.8.5-1.5,1.3-1.6v.2Z"/>
  <path class="st0" d="M122.9,54.8c-.3-3.6-1.1-7-2.4-10.4-2.2-5.5-5.3-10.6-9.2-15.1-5-6-11.3-10.8-18.3-14.2-6-2.8-12.5-4.5-19.1-5.1-.7,0-1.4-.1-2.1-.2h1.5-2c0-.1-13.4-.1-13.4-.1h0c0,.1,6.2.1,6.2.1-1,.2-2,.3-2.9.4-3.6.4-7.1,1.3-10.4,2.6-5.1,1.9-9.9,4.4-14.5,7.5-11.2,7.9-18.9,18.4-22.3,31.6-.9,3.4-1.4,6.9-1.6,10.5,0,.5-.2,1-.3,1.6v4.4c0,.4.2.8.2,1.2.2,1.6.4,3.1.6,4.7.8,5.8,2.7,11.4,5.4,16.6,6.1,11.9,16.3,21.3,28.6,26.4,1.8.8,3.7,1.5,5.6,1.9,3.2.6,6.4.9,9.6,1.1h.5c-.9-.5-1.6-.9-2.3-1.3-1.3-.7-2.6-1.6-3.7-2.7-2.6-2.4-5.1-4.8-7.7-7.2-1.2-1.1-2.5-2.1-4-2.9-3.5-1.7-6.7-4-9.6-6.6-3.8-3.5-7-7.6-9.5-12.1-4-6.8-6.1-14.5-6.1-22.3s.5-8.2,1.5-12.2c1.1-4.7,2.9-9.2,5.5-13.2,3.4-5.2,7.8-9.6,12.8-13.2,4.8-3.3,10.1-5.7,15.7-7.1,2.5-.7,5-1.2,7.5-1.5,3.7-.3,7.4-.2,11,.4,6.4,1,12.6,3.1,18.2,6.3,6,3.4,11.4,7.8,16,12.9.2.2.3.3.5.5,0-.3-.2-.5-.4-.8-1.7-2.5-3.7-4.8-5.8-6.9-3.6-3.5-7.6-6.3-12.1-8.5-2.6-1.2-5.2-2.2-7.8-3.1-3.9-1.2-7.9-2-12-2.4-1-.1-2.1-.2-3.2-.3h1.2c3.4,0,6.8.4,10.2,1.2,3.1.7,6.1,1.6,9,2.9.6.2,1.1.6,1.7.8,2,.7,4,1.7,5.9,2.8,4.2,2.6,8,5.7,11.5,9.2,2.2,2.3,4.1,4.9,5.6,7.6,1,1.7,2,3.4,3.1,5.1.3.6.8,1.1,1.3,1.6,0-.2,0-.4-.2-.6-.9-1.9-1.8-3.7-2.7-5.6-.8-1.6-1.6-3.2-2.5-4.7-3-5.2-7.2-9.6-12.3-12.8-1.6-1-3.3-2-5-3-3.7-2.2-7.8-3.9-12-5-3.3-.8-6.6-1.5-10-1.9-2.8-.4-5.7-.4-8.5,0-2.2.4-4.4.9-6.6,1.3-5.9,1.2-11.6,3.5-16.6,6.8-2.6,1.7-5,3.6-7.5,5.5-1,.8-1.9,1.6-2.9,2.4l-.4.3h0c.6-.8,1.1-1.5,1.7-2.2,4.2-4.3,9.1-7.7,14.4-10.2,6.6-3.2,13.8-5,21.2-5.3,5.4-.2,10.7.4,15.9,1.9,11.7,3.2,22.1,10.2,29.3,19.9,2.7,3.4,4.6,7.3,5.8,11.4.5,1.6,1.2,3.2,2.1,4.7l.3.4v-.6c-.8-2.4-1.5-4.8-2.4-7.2-1.5-4.1-3.6-7.9-6.3-11.3-3.1-3.7-6.6-7-10.4-9.9-3.8-2.7-7.9-5-12.3-6.6-5.2-2.1-10.8-3.3-16.4-3.8-3.9-.3-7.8-.1-11.7.5-.4,0-.8.1-1.2.2,3.2-.7,6.6-1.1,9.9-1,4.5,0,9,.6,13.4,1.8,9.3,2.6,17.8,7.3,24.8,13.9,5.4,4.9,9.5,11.2,11.8,18.1,1.2,3.7,2.3,7.4,3.5,11.1,0,.2,0,.4.2.6v-1.5h0Z"/>
  <path class="st0" d="M84.5,126.7l-2.1-.3c-4.7-.6-9.3-1.9-13.6-3.9-2.2-1.1-4.3-2.5-6.3-4.1-3.5-2.8-6.8-5.8-9.9-8.9-1.2-1.2-2.1-2.7-2.8-4.2-.4-.9-.8-1.7-1.3-2.7.3,0,.6,0,.8.3.9.7,1.9,1.1,3,1.2h1.3c.7-.2,1.5,0,2.1.2,1,.3,1.9.8,2.7,1.5,1.2.9,2.3,1.7,3.5,2.6,3.9,2.8,8.1,5.1,12.5,7,2.2.9,4.6,1.4,7,1.4s4.4,0,6.6.2c6.2,0,12.4-1.5,17.7-4.7,8.2-4.7,13-11.8,15.1-20.7.4-1.5.5-3.1.5-4.6,0-2.3,0-4.6-.3-6.9-.3-2.8-1.1-5.6-2.5-8.1-4-8.1-11.1-14.2-19.8-16.7-1.4-.4-2.8-.7-4.2-.7-1.8,0-3.6-.2-5.3-.2-4.2,0-8.2,1.1-12,2.9-8,3.6-14.6,9.8-18.5,17.6-.3.5-.5,1-.9,1.5v-.3c2.9-7.3,8.1-13.5,14.7-17.7,3.9-2.4,8.2-3.9,12.7-4.5,4.5-.7,9.2-.5,13.6.6h.3c.1,0,0,0,0,0-1.1-.5-2.3-.8-3.5-1-2.9-.5-5.8-.6-8.7-.5-11.2.7-19.9,5.7-26.5,14.5-1.1,1.5-2,3.2-3,4.8,0,.2-.2.3-.4.5,0-.3.2-.7.3-1,4.2-10.4,11.7-17,22.8-19.7,2.9-.7,5.8-1,8.7-1,5,0,9.9,1.1,14.5,3,3.2,1.2,6.1,3,8.5,5.2.7.7,1.4,1.2,2.2,1.9.2.2.4.3.7.4,0-.2,0-.3-.2-.5-.8-1.6-2-2.9-3.4-4-4.8-3.8-10.5-6.2-16.5-7.2-3.2-.5-6.5-.6-9.8-.2-2.8.3-5.6.7-8.3,1.4-1.8.5-3.6,1.2-5.3,2.1-.9.5-1.9,1-2.8,1.6-4.3,2.4-7.8,5.9-10.3,10.2-.6,1-1.1,2-1.7,3,0,.2-.3.4-.5.6,0-.2,0-.4,0-.6.5-2.2,1.4-4.3,2.5-6.2,1-1.6,2-3.2,3.2-4.7,1.1-1.4,2.4-2.6,3.9-3.5,2.9-1.8,5.9-3.5,9-4.8,2.2-.9,4.4-1.5,6.8-1.8,11.4-1.8,23,1.1,32.1,8.2,7.5,5.8,12.7,14,14.6,23.3.7,3.4.9,6.9.7,10.3-.2,3.1-.7,6.2-1.5,9.2-1.6,5.3-4.3,10.1-7.9,14.3-5.8,7-13.8,11.7-22.6,13.6-2,.5-4,.8-6.1,1-.2,0-.3,0-.5,0h-5.9v-.3Z"/>
  <path class="st0" d="M255.1,93.8v26.7c0,2.7-.2,2.9-2.9,2.9s-3.5,0-5.2,0c-1.5,0-2.8-.9-3.1-2.3-.7-2.3-1.4-4.5-2-6.8-.2-.8-.4-1.5-.6-2.2s-.7-.9-1.4-.4c-.4.3-.7.6-1,.9-3.1,2.8-6.6,5.4-10.2,7.5-5.7,3.3-11.9,5.3-18.4,6.1-4.1.5-8.1.8-12.2.7-9.2-.3-18.2-2.7-26.3-7.1-7.1-3.8-12.9-9.6-16.6-16.7-3.4-6.5-5.7-13.6-6.8-20.9-.8-4.8-1.2-9.7-1.2-14.6.1-12.4,3.2-24,10.1-34.4,7.6-11.5,18.3-18.6,31.8-21.6,6.2-1.4,12.5-1.9,18.8-1.5,12,.7,23.5,5.1,32.9,12.8,6.5,5.3,10.9,12.8,12.1,21.2.4,2.4,0,2.8-2.4,2.7-3.3,0-6.5,0-9.8-.2-.5,0-.9,0-1.4,0-1.1,0-2-.9-2.4-1.9s-.4-1-.6-1.5c-.7-1.5-1.3-3-2.1-4.5-2.5-5-6.7-8.9-11.9-11-5.7-2.4-11.8-3.8-18-4-6.7-.2-13.3,1.2-19.2,4.2-8,4-13.5,10.3-17,18.4-2.3,5.3-3.7,11-4,16.8-.5,7.2,0,14.4,1.6,21.4.9,4.2,2.5,8.3,4.6,12,5.3,9.2,13.2,14.8,23.6,17,4,.9,8.2,1.3,12.3,1,10.4-.6,20.1-5.6,26.8-13.6,3.7-4.5,6-10,6.5-15.8.2-1.7.3-3.3.3-5s-.3-2.3-2.3-2.5c-5.7-.5-11.3-.6-17-.5h-12c-1,0-2,0-3,.2-1.7.2-2.3-.2-2.3-1.8v-8.7c0-1.8.8-2.5,2.6-2.6h46.4c2.5,0,2.9.3,2.9,2.9v27h0Z"/>
  <path class="st0" d="M345.6,126.7c-7.2,0-14.4-1.3-21.1-3.8-12-4.4-21.6-13.6-26.6-25.5-3.3-7.6-5.5-15.7-6.4-24-1.6-13.5,1.3-27.2,8.2-38.9,7.3-12.4,18.3-20.1,32.6-23.2,10.2-2.2,20.7-2.2,30.9,0,6,1.3,11.8,3.7,17,7,8.6,5.4,14.6,14.1,16.8,24,.2.8.4,1.6.5,2.4.1,1-.2,1.3-1.1,1.4h-12c-1.9,0-2.3-.3-3-2-.6-1.5-1.1-2.9-1.8-4.3-3.4-7-9.6-12.3-17.1-14.4-10.7-3.5-22.3-2.7-32.5,2.1-7.9,3.5-13.2,9.5-16.8,17.1-2.3,5.2-3.7,10.7-4.1,16.4-.4,4.7-.4,9.3,0,14,.5,8.3,3.2,16.4,7.6,23.4,1.7,2.7,3.8,5.1,6.1,7.2,4.9,4.4,11.2,7.1,17.8,7.5,3.7.4,7.4.4,11.1,0,13.1-1.6,22.6-7.9,27.8-19.8,1-2.5,1.9-5,2.5-7.6.5-1.9,1.8-4.1,3.9-4.1h12c1.1,0,1.1,1.3.9,2.3-1.4,7.7-3.7,15-8.4,21.5-7.4,10.5-18.6,17.7-31.2,20-4.6.9-9.2,1.3-13.8,1.2h.2Z"/>
  <path class="st0" d="M282.1,68.1v55.4c0,2.7-.4,3.1-3,3.1h-13.4c-.7,0-1.4-.6-1.5-1.3-.1-.6-.2-1.3-.2-1.9V12.1c0-1.4.5-2,1.8-2.1,1.7-.2,3.5-.3,5.3-.4h8.4c2,0,2.5.6,2.5,2.7v55.7h.1Z"/>
  <line class="st1" x1="12.1" y1="144.7" x2="498.1" y2="144.7"/>
  <path class="st0" d="M19,176.9c-1.1,0-2.3-.3-3.3-.8-.9-.5-1.7-1.3-2.2-2.3-.5-1.1-.8-2.4-.8-3.7s.2-2.5.8-3.6c.5-1,1.3-1.8,2.3-2.4,1.1-.6,2.3-.9,3.5-.8,1.2,0,2.5.2,3.5.8s1.7,1.4,2.2,2.5l-2.6,1.1c-.2-.6-.6-1.2-1.1-1.6-.6-.4-1.3-.5-1.9-.5s-1.4.2-2,.5c-.6.4-1,.9-1.3,1.5-.3.8-.5,1.6-.5,2.5s.1,1.7.4,2.5c.2.6.7,1.2,1.3,1.5.6.4,1.4.5,2.1.5s.8,0,1.3-.2c.4-.1.7-.3,1-.5s.5-.5.7-.8c.2-.4.2-.8.2-1.2v-.3h-3.5v-2h6v7h-2l-.2-2.9.5.3c-.3.8-.8,1.5-1.6,2-.9.5-1.8.7-2.8.7v.2Z"/>
  <path class="st0" d="M27.7,176.7v-10h2.4l.2,2c.2-.6.7-1.2,1.2-1.6.6-.4,1.3-.6,2-.6h.6c.2,0,.3,0,.5.2l-.3,2.3c-.2,0-.3,0-.5-.1h-.8c-.4,0-.8.1-1.2.3-.4.2-.7.5-.9.9-.3.5-.4,1-.4,1.5v5.1h-2.8Z"/>
  <path class="st0" d="M39.6,176.9c-.6,0-1.3-.1-1.8-.4-.5-.2-1-.6-1.3-1.1-.3-.6-.5-1.3-.5-2v-6.7h2.8v6c0,.6,0,1.2.5,1.6.4.3.9.5,1.4.4.3,0,.6,0,.8-.1.3-.1.5-.3.7-.5s.4-.5.5-.8c0-.4.2-.8.2-1.2v-5.4h2.8v10h-2.5v-1.7c-.4.6-.9,1.1-1.5,1.5-.7.3-1.4.5-2.2.5h0Z"/>
  <path class="st0" d="M48.4,180.9v-14.2h2.5l.2,3.2-.3-.4c0-.6.3-1.1.7-1.6.3-.5.8-.8,1.3-1.1s1.1-.4,1.7-.4,1.6.2,2.2.6c.7.4,1.2,1,1.6,1.8.8,1.8.8,3.8,0,5.6-.3.7-.9,1.4-1.6,1.8-.7.4-1.5.6-2.3.6s-1.6-.2-2.2-.7c-.6-.5-1-1.1-1.2-1.9l.3-.4v7h-2.9ZM53.6,174.8c.7,0,1.3-.3,1.8-.8.5-.7.7-1.5.6-2.3,0-.8-.2-1.6-.6-2.3-.4-.5-1.1-.8-1.8-.8s-.9.1-1.3.4c-.4.3-.7.6-.8,1.1-.2.5-.3,1.1-.3,1.7s0,1.1.3,1.6c.2.4.5.8.8,1.1.4.3.8.4,1.3.4h0Z"/>
  <path class="st0" d="M65.7,166.5c1,0,1.9.2,2.7.6.8.4,1.4,1,1.8,1.8.9,1.8.9,3.8,0,5.6s-1.1,1.4-1.8,1.8c-1.7.8-3.7.8-5.5,0-.8-.4-1.4-1-1.8-1.8-.9-1.8-.9-3.8,0-5.6s1.1-1.4,1.8-1.8c.8-.4,1.8-.6,2.7-.6h.1ZM65.7,168.5c-.5,0-.9.1-1.3.4-.4.3-.7.6-.8,1.1-.4,1.1-.4,2.4,0,3.5.2.4.5.8.8,1,.4.2.9.4,1.3.4s.9-.1,1.3-.4c.4-.2.7-.6.8-1,.4-1.1.4-2.4,0-3.5-.2-.4-.4-.8-.8-1.1-.4-.2-.8-.3-1.3-.3h0Z"/>
  <path class="st0" d="M82.9,176.9c-1.6,0-3.1-.9-3.8-2.4-.4-.9-.6-1.8-.6-2.8s.2-1.9.6-2.8c.7-1.5,2.2-2.4,3.9-2.4s1.6.2,2.2.8c.6.5,1,1.2,1.1,2l-.3.3v-7.2h2.8v14.3h-2.6l-.2-3,.3.2c0,1.2-.9,2.2-1.9,2.7-.5.2-1.1.4-1.7.4h.2ZM83.7,174.8c.5,0,.9-.1,1.3-.4.4-.3.7-.7.8-1.1.2-.5.3-1.1.3-1.7s0-1.1-.3-1.6c-.2-.4-.5-.8-.8-1-1-.6-2.3-.4-3.1.4-.5.7-.7,1.5-.6,2.3,0,.8.2,1.6.6,2.3.4.5,1.1.8,1.8.8Z"/>
  <path class="st0" d="M96.3,176.9c-1,0-1.9-.2-2.8-.6-.8-.4-1.4-1-1.8-1.8-.9-1.8-.9-3.8,0-5.6s1.1-1.4,1.8-1.8c.8-.4,1.8-.6,2.7-.6s1.8.2,2.6.6c.7.4,1.3,1,1.7,1.7.4.7.6,1.6.6,2.4v1.4h-8.2v-1.9h7l-1.4.5c0-.7-.2-1.4-.6-1.9s-1-.7-1.7-.7-.9.1-1.3.4c-.4.3-.7.6-.9,1.1-.2.6-.3,1.2-.3,1.8s0,1.2.3,1.8.5.8.9,1,.9.4,1.4.3c.5,0,1,0,1.5-.3.4-.2.7-.6.9-.9l2.2.8c-.2.5-.6,1-1,1.3-.5.4-1,.7-1.6.9-.7.2-1.3.3-2,.3v-.2Z"/>
  <path class="st0" d="M112.3,163.5v13.2h-2.8v-13.2h2.8Z"/>
  <path class="st0" d="M115.1,176.7v-10h2.5l.2,3-.4-.3c0-.6.4-1.1.8-1.6.3-.4.8-.8,1.3-1s1.1-.3,1.7-.3,1.3.1,1.9.4c.5.3,1,.7,1.3,1.2.3.6.5,1.3.5,2v6.6h-2.8v-5.8c0-.6,0-1.3-.5-1.8-.4-.3-.8-.5-1.3-.5s-.8,0-1.1.3c-.4.2-.7.5-.9.9-.3.5-.4,1-.3,1.6v5.3h-2.9Z"/>
  <path class="st0" d="M134,166.7h2.9l-3.9,10h-3.2l-3.9-10h3l2.5,7.9,2.6-7.9Z"/>
  <path class="st0" d="M142.8,176.9c-1,0-1.9-.2-2.8-.6-.8-.4-1.4-1-1.9-1.8-.9-1.8-.9-3.8,0-5.6.4-.8,1.1-1.4,1.8-1.8.8-.4,1.8-.6,2.7-.6s1.8.2,2.6.6c.7.4,1.3,1,1.7,1.7s.6,1.6.6,2.4v1.4h-8.2v-1.9h7l-1.4.5c0-.7-.2-1.4-.6-1.9-.4-.5-1-.7-1.7-.7s-.9.1-1.3.4c-.4.3-.7.6-.9,1.1-.2.6-.3,1.2-.3,1.8s0,1.2.3,1.8.5.8.9,1c.9.5,2,.5,2.9,0,.4-.2.7-.6.9-.9l2.2.8c-.2.5-.6,1-1,1.3-.5.4-1,.7-1.6.9s-1.3.3-2,.3v-.2Z"/>
  <path class="st0" d="M153.8,176.9c-1,0-1.9-.2-2.8-.5-.8-.3-1.5-.8-2.1-1.5l1.6-1.6c.3.5.8.9,1.3,1.2.6.3,1.3.5,2,.5s.9,0,1.3-.2c.3-.1.5-.4.5-.7s0-.4-.2-.6c-.3-.2-.6-.3-.9-.4l-1.8-.4c-.9-.1-1.8-.5-2.5-1.1-.5-.5-.8-1.2-.8-1.9s.2-1.1.5-1.5c.4-.5.9-.9,1.5-1.2.8-.3,1.6-.5,2.5-.4.9,0,1.8.1,2.7.5.7.3,1.3.8,1.8,1.4l-1.7,1.6c-.3-.5-.7-.8-1.2-1.1-.5-.2-1-.4-1.5-.4s-.7,0-1,.1c-.2,0-.4.2-.6.3-.1.1-.2.3-.2.5s.1.4.3.6c.3.2.6.3,1,.4l2.1.4c.8.1,1.6.5,2.2,1,.4.5.7,1.1.6,1.7,0,.6-.2,1.2-.5,1.7-.4.5-.9.9-1.5,1.2-.8.3-1.6.5-2.5.4h-.1Z"/>
  <path class="st0" d="M167.2,166.7v2h-8v-2h8ZM163.9,163.7v9.8c0,.4.1.8.4,1.1.3.2.6.3,1,.3s.6,0,.9-.1c.2-.1.5-.2.7-.4l.4,1.8c-.4.3-.8.5-1.2.6-.5.1-1,.2-1.6.2s-1.2,0-1.8-.3c-.5-.2-.9-.5-1.2-1s-.5-1.1-.4-1.8v-9.5l2.8-.7h0Z"/>
  <path class="st0" d="M170.2,165.2c-.5,0-.9,0-1.3-.4-.3-.3-.5-.7-.4-1.1,0-.4.1-.8.4-1.1.8-.5,1.8-.5,2.6,0,.3.3.5.7.4,1.1,0,.4-.1.8-.4,1.1-.4.3-.8.4-1.3.4ZM171.6,166.7v10h-2.8v-10h2.8Z"/>
  <path class="st0" d="M180.4,174.8c.9,0,1.8.2,2.6.7.6.5,1,1.2.9,2,0,.7-.2,1.4-.7,1.9-.5.6-1.2,1-1.9,1.2-.9.3-1.9.4-2.8.4-1.3,0-2.7-.2-3.9-.7-.7-.3-1.2-1.1-1.2-1.9s.2-1,.6-1.4c.6-.4,1.4-.7,2.1-.6v.3c-.7,0-1.2-.3-1.7-.7-.4-.4-.6-.9-.6-1.4s.3-1.2.7-1.5c.6-.4,1.3-.7,2-.7l1.2.6h-.3c-.4,0-.9.1-1.2.4-.2.1-.3.4-.4.6,0,.3.1.5.3.6.3.2.7.2,1,.2h3.3ZM178.5,166.5c.9,0,1.7.1,2.5.4.6.2,1.2.6,1.6,1.2.7,1.1.7,2.5,0,3.6-.4.5-1,.9-1.6,1.2-.8.3-1.6.4-2.5.4s-2.4-.2-3.5-.9c-1.3-1-1.6-2.9-.6-4.3.4-.5,1-.9,1.6-1.2.8-.3,1.6-.4,2.5-.4ZM178.5,179.1c.6,0,1.2,0,1.8-.2.4,0,.7-.2,1-.5.2-.1.3-.4.3-.6s-.1-.5-.3-.6c-.3-.2-.7-.3-1.1-.2h-3.5c-.3,0-.6,0-.8.2s-.3.4-.3.7.3.7.8.9c.7.2,1.4.3,2.1.3h0ZM178.5,168.2c-.5,0-1,.2-1.4.5s-.6.8-.5,1.2c0,.5.2.9.5,1.2.4.3.9.5,1.4.4.5,0,1-.1,1.4-.4.4-.3.5-.8.5-1.2s-.2-.9-.5-1.2c-.4-.3-.8-.5-1.3-.5h0ZM183.8,164.3l.3,2h-.4c-.5,0-1,.1-1.4.4-.3.3-.5.7-.5,1.1l-1.1-.5c0-.5.1-1,.3-1.5s.6-.8,1-1.1c.5-.3,1-.4,1.6-.4h.2,0Z"/>
  <path class="st0" d="M191.1,170.3c0-.5-.2-1-.5-1.3-.4-.3-.8-.5-1.3-.5s-.9.1-1.3.4c-.4.3-.7.8-.8,1.3l-2.4-.7c.2-.9.8-1.6,1.5-2.1,1-.6,2.1-.9,3.2-.8.8,0,1.6.1,2.4.4.6.2,1.2.7,1.6,1.2.4.6.6,1.3.6,2.1v4.1c0,.5.2.8.7.8s.4,0,.6-.1l-.2,1.7c-.4.2-.9.3-1.3.3s-.9,0-1.3-.2c-.4-.1-.7-.4-.9-.7-.2-.4-.3-.8-.3-1.2h0l.5-.2c0,.5-.3.9-.7,1.3-.4.4-.8.6-1.4.8-.5.2-1.1.3-1.6.3s-1.2,0-1.8-.3c-.5-.2-.9-.5-1.2-.9s-.4-1-.4-1.5.2-1.4.7-1.8c.6-.5,1.3-.9,2.1-1l3.9-.8v1.7l-2.5.5c-.4,0-.7.2-1,.4-.2.2-.4.5-.4.8s.1.6.4.8c.3.2.6.3.9.3s.6,0,.8-.1c.3,0,.5-.2.7-.3.2-.2.4-.4.5-.6.1-.3.2-.6.2-.9v-3.2Z"/>
  <path class="st0" d="M201.4,166.5c.8,0,1.6.1,2.3.4.6.2,1.1.6,1.5,1.1.4.4.7.9.8,1.5l-2.6.9c0-.5-.3-1-.7-1.4-.4-.3-.9-.5-1.3-.5s-.9.1-1.3.4c-.4.3-.7.6-.8,1.1-.2.6-.3,1.2-.3,1.8s0,1.2.3,1.8.5.8.9,1,.9.4,1.3.3c.4,0,.7,0,1.1-.2.3-.1.5-.3.7-.6s.3-.6.4-1l2.5.8c-.1.6-.4,1.1-.8,1.6-.4.5-1,.8-1.6,1.1-.7.3-1.5.4-2.2.4-1,0-1.9-.2-2.8-.6-.8-.4-1.4-1-1.9-1.8-.9-1.8-.9-3.8,0-5.6.4-.8,1.1-1.4,1.8-1.8.9-.4,1.8-.6,2.7-.5v-.2Z"/>
  <path class="st0" d="M209.4,165.2c-.5,0-.9,0-1.3-.4-.3-.3-.5-.7-.4-1.1,0-.4.1-.8.4-1.1.8-.5,1.8-.5,2.6,0,.3.3.5.7.4,1.1,0,.4-.1.8-.4,1.1-.4.3-.8.4-1.3.4ZM210.8,166.7v10h-2.8v-10h2.8Z"/>
  <path class="st0" d="M218.2,166.5c1,0,1.9.2,2.7.6.8.4,1.4,1,1.8,1.8.9,1.8.9,3.8,0,5.6-.4.8-1.1,1.4-1.8,1.8-1.7.8-3.7.8-5.5,0-.8-.4-1.4-1-1.9-1.8-.9-1.8-.9-3.8,0-5.6.4-.8,1.1-1.4,1.9-1.8.8-.4,1.8-.6,2.7-.6h.1ZM218.2,168.5c-.5,0-.9.1-1.3.4-.4.3-.7.6-.8,1.1-.4,1.1-.4,2.4,0,3.5.2.4.5.8.8,1,.4.2.9.4,1.3.4s.9-.1,1.3-.4c.4-.2.7-.6.8-1,.4-1.1.4-2.4,0-3.5-.2-.4-.4-.8-.8-1.1-.4-.2-.8-.3-1.3-.3h0ZM218.2,161.8h2.7l-2.1,3.4h-2.1l1.4-3.4h.1Z"/>
  <path class="st0" d="M225.5,176.7v-10h2.5l.2,3-.4-.3c.1-.6.4-1.1.8-1.6.3-.4.8-.8,1.3-1s1.1-.3,1.7-.3,1.3.1,1.9.4c.5.3,1,.7,1.3,1.2.3.6.5,1.3.5,2v6.6h-2.8v-5.8c0-.6-.1-1.3-.5-1.8-.4-.3-.8-.5-1.3-.5s-.8,0-1.1.3c-.4.2-.7.5-.9.9-.3.5-.4,1-.3,1.6v5.3h-2.9Z"/>
  <path class="st0" d="M247.8,176.9c-1.6,0-3.1-.9-3.8-2.4-.4-.9-.6-1.8-.6-2.8s.2-1.9.6-2.8c.7-1.5,2.2-2.4,3.9-2.4s1.6.2,2.2.8c.6.5,1,1.2,1.1,2l-.3.3v-7.2h2.8v14.3h-2.5l-.2-3,.3.2c0,.6-.3,1.1-.6,1.6s-.8.8-1.3,1.1c-.5.2-1.1.4-1.7.3h.1ZM248.6,174.8c.5,0,.9-.1,1.3-.4.4-.3.7-.7.8-1.1.2-.5.3-1.1.3-1.7s0-1.1-.3-1.6c-.2-.4-.5-.8-.8-1-.4-.2-.8-.4-1.2-.4-.7,0-1.4.3-1.8.8-.5.7-.7,1.5-.6,2.3,0,.8.2,1.6.6,2.3.4.5,1.1.8,1.8.8h-.1Z"/>
  <path class="st0" d="M261.2,176.9c-1,0-1.9-.2-2.8-.6-.8-.4-1.4-1-1.9-1.8-.9-1.8-.9-3.8,0-5.6.4-.8,1.1-1.4,1.8-1.8.8-.4,1.8-.6,2.7-.6s1.8.2,2.6.6c.7.4,1.3,1,1.7,1.7.4.7.6,1.6.6,2.4v1.4h-8.2v-1.9h7l-1.4.5c0-.7-.2-1.4-.6-1.9s-1-.7-1.6-.7-.9.1-1.4.4c-.4.3-.7.6-.9,1.1-.2.6-.3,1.2-.3,1.8s0,1.2.3,1.8c.2.4.5.8.9,1s.9.4,1.4.3c.5,0,1,0,1.5-.3.4-.2.7-.6.9-.9l2.2.8c-.2.5-.6,1-1,1.3-.5.4-1,.7-1.6.9s-1.3.3-2,.3v-.2Z"/>
  <path class="st0" d="M270.8,162.3v11.3c0,.4,0,.7.2,1,.2.2.5.3.8.3h1.2c0-.1-.2,1.7-.2,1.7-.3.1-.6.3-.9.3s-.7.1-1,.1c-.8,0-1.6-.2-2.2-.7-.5-.6-.8-1.5-.7-2.3v-11.6h2.8Z"/>
  <path class="st0" d="M291.7,173c-.2.8-.7,1.5-1.2,2.1-.6.6-1.2,1-2,1.3s-1.7.4-2.5.4c-1.2,0-2.4-.3-3.5-.8-1-.5-1.8-1.4-2.3-2.3-1.1-2.3-1.1-5,0-7.3.5-1,1.3-1.8,2.3-2.3,1.1-.6,2.2-.8,3.4-.8s1.7.1,2.5.4c.7.2,1.4.6,1.9,1.1s.9,1.2,1.2,1.9l-2.6,1.1c-.1-.7-.5-1.3-1.1-1.7-.5-.4-1.2-.5-1.8-.5s-1.4.2-1.9.5c-.6.4-1,.9-1.3,1.5-.3.8-.5,1.6-.5,2.5s.1,1.7.4,2.5c.2.6.7,1.2,1.2,1.5.6.4,1.3.5,2,.5s1.4-.2,1.9-.6c.6-.4,1-1.1,1.1-1.8l2.6.8h.2Z"/>
  <path class="st0" d="M298.3,176.9c-1,0-1.9-.2-2.8-.6-.8-.4-1.4-1-1.9-1.8-.9-1.8-.9-3.8,0-5.6.4-.8,1.1-1.4,1.8-1.8.8-.4,1.8-.6,2.7-.6s1.8.2,2.6.6c.7.4,1.3,1,1.7,1.7.4.7.6,1.6.6,2.4v1.4h-8.2v-1.9h7l-1.4.5c0-.7-.2-1.4-.6-1.9s-1-.7-1.6-.7-.9.1-1.4.4c-.4.3-.7.6-.9,1.1-.2.6-.3,1.2-.3,1.8s0,1.2.3,1.8c.2.4.5.8.9,1s.9.4,1.4.3c.5,0,1,0,1.5-.3.4-.2.7-.6.9-.9l2.2.8c-.2.5-.6,1-1,1.3-.5.4-1,.7-1.6.9-.7.2-1.3.3-2,.3v-.2Z"/>
  <path class="st0" d="M305.1,176.7v-10h2.5l.2,3-.4-.3c.1-.6.4-1.1.8-1.6.3-.4.8-.8,1.3-1s1.1-.3,1.7-.3,1.3.1,1.9.4c.5.3,1,.7,1.3,1.2.3.6.5,1.3.5,2v6.6h-2.8v-5.8c0-.6-.1-1.3-.5-1.8-.4-.3-.8-.5-1.3-.5s-.8,0-1.1.3c-.4.2-.7.5-.9.9-.3.5-.4,1-.3,1.6v5.3h-2.9Z"/>
  <path class="st0" d="M324.4,166.7v2h-8v-2h8ZM321.1,163.7v9.8c0,.4.1.8.4,1.1.3.2.6.3,1,.3s.6,0,.9-.1c.3,0,.5-.2.7-.4l.5,1.8c-.4.3-.8.5-1.2.6-.5.2-1,.2-1.6.2s-1.2,0-1.8-.3c-.5-.2-.9-.5-1.2-1-.3-.5-.5-1.1-.4-1.8v-9.5l2.8-.7h0Z"/>
  <path class="st0" d="M326,176.7v-10h2.4l.2,2c.2-.6.7-1.2,1.2-1.6.6-.4,1.3-.6,2-.6h.6c.2,0,.3,0,.5.2l-.3,2.3c-.2,0-.3,0-.5-.1h-.8c-.4,0-.8.1-1.2.3-.4.2-.7.5-.9.9-.3.5-.4,1-.4,1.5v5.1h-2.8Z"/>
  <path class="st0" d="M338.9,166.5c1,0,1.9.2,2.7.6s1.4,1,1.8,1.8c.9,1.8.9,3.8,0,5.6-.4.8-1.1,1.4-1.8,1.8-1.7.8-3.7.8-5.5,0-.8-.4-1.4-1-1.9-1.8-.9-1.8-.9-3.8,0-5.6.4-.8,1.1-1.4,1.9-1.8.8-.4,1.8-.6,2.7-.6h0ZM338.9,168.5c-.5,0-.9.1-1.3.4-.4.3-.7.6-.8,1.1-.4,1.1-.4,2.4,0,3.5.2.4.5.8.8,1,.8.5,1.8.5,2.6,0,.4-.2.7-.6.8-1,.4-1.1.4-2.4,0-3.5-.2-.4-.4-.8-.8-1.1-.4-.2-.8-.3-1.3-.3h0Z"/>
  <path class="st0" d="M356,176.9c-1.6,0-3.1-.9-3.8-2.4-.4-.9-.6-1.8-.6-2.8s.2-1.9.6-2.8c.7-1.5,2.2-2.4,3.9-2.4s1.6.2,2.2.8c.6.5,1,1.2,1.1,2l-.3.3v-7.2h2.9v14.3h-2.5l-.2-3,.3.2c0,.6-.3,1.1-.6,1.6-.3.5-.8.8-1.3,1.1-.6.3-1.2.4-1.8.3h0ZM356.9,174.8c.5,0,.9-.1,1.3-.4.4-.3.7-.7.8-1.1.2-.5.3-1.1.3-1.7s0-1.1-.3-1.6c-.2-.4-.5-.8-.8-1-1-.6-2.3-.4-3,.4-.5.7-.7,1.5-.6,2.3,0,.8.2,1.6.6,2.3.4.5,1.1.8,1.8.8h0Z"/>
  <path class="st0" d="M369.5,176.9c-1,0-1.9-.2-2.8-.6-.8-.4-1.4-1-1.9-1.8-.9-1.8-.9-3.8,0-5.6.4-.8,1.1-1.4,1.8-1.8.8-.4,1.8-.6,2.7-.6s1.8.2,2.6.6c.7.4,1.3,1,1.7,1.7.4.7.6,1.6.6,2.4v1.4h-8.2v-1.9h7l-1.4.5c0-.7-.2-1.4-.6-1.9s-1-.7-1.6-.7-.9.1-1.4.4c-.4.3-.7.6-.9,1.1-.2.6-.3,1.2-.3,1.8s0,1.2.3,1.8c.2.4.5.8.9,1,.9.5,2,.5,2.9,0,.4-.2.7-.6.9-.9l2.2.8c-.2.5-.6,1-1,1.3-.5.4-1,.7-1.6.9s-1.3.3-2,.3v-.2Z"/>
  <path class="st0" d="M382.6,176.7v-13.2h10.1v2.2h-7.3v3.3h5.8v2.1h-5.8v3.4h7.6v2.2h-10.4Z"/>
  <path class="st0" d="M397.8,162.3v11.3c0,.4,0,.7.2,1,.2.2.5.3.8.3h1.2c0-.1-.2,1.7-.2,1.7-.3.1-.6.3-.9.3s-.7.1-1,.1c-.8,0-1.6-.2-2.2-.7-.5-.6-.8-1.5-.7-2.3v-11.6h2.8Z"/>
  <path class="st0" d="M406,176.9c-1,0-1.9-.2-2.8-.6-.8-.4-1.4-1-1.9-1.8-.9-1.8-.9-3.8,0-5.6.4-.8,1.1-1.4,1.8-1.8.8-.4,1.8-.6,2.7-.6s1.8.2,2.6.6c.7.4,1.3,1,1.7,1.7.4.7.6,1.6.6,2.4v1.4h-8.2v-1.9h7l-1.4.5c0-.7-.2-1.4-.6-1.9s-1-.7-1.6-.7-.9.1-1.3.4c-.4.3-.7.6-.9,1.1-.2.6-.3,1.2-.3,1.8s0,1.2.3,1.8c.2.4.5.8.9,1,.9.5,2,.5,2.9,0,.4-.2.7-.6.9-.9l2.2.8c-.2.5-.6,1-1,1.3-.5.4-1,.7-1.6.9s-1.3.3-2,.3v-.2Z"/>
  <path class="st0" d="M417.5,166.5c.8,0,1.6.1,2.3.4.6.2,1.1.6,1.5,1.1.4.4.7.9.8,1.5l-2.6.9c0-.5-.3-1-.7-1.4-.4-.3-.9-.5-1.3-.5s-.9.1-1.3.4c-.4.3-.7.6-.8,1.1-.2.6-.3,1.1-.3,1.7s0,1.2.3,1.8c.2.4.5.8.9,1s.9.4,1.3.3c.4,0,.7,0,1-.2.3-.1.5-.3.7-.6s.3-.6.4-1l2.5.8c-.1.6-.4,1.1-.8,1.6s-1,.8-1.6,1.1c-1.6.6-3.4.5-5-.2-.8-.4-1.4-1-1.9-1.8-.9-1.8-.9-3.8,0-5.6.4-.8,1.1-1.4,1.8-1.8.8-.4,1.8-.6,2.7-.5h.1Z"/>
  <path class="st0" d="M431,166.7v2h-8v-2h8ZM427.8,163.7v9.8c0,.4.1.8.4,1.1.3.2.6.3,1,.3s.7,0,1-.2c.3,0,.5-.2.7-.4l.5,1.8c-.4.3-.8.5-1.2.6-.5.2-1,.2-1.6.2s-1.2,0-1.8-.3c-.5-.2-.9-.5-1.2-1-.3-.5-.5-1.1-.4-1.8v-9.5l2.8-.7h-.2Z"/>
  <path class="st0" d="M432.7,176.7v-10h2.5l.2,2c.2-.6.7-1.2,1.2-1.6.6-.4,1.3-.6,2-.6h.6c.2,0,.3,0,.5.2l-.3,2.3c-.2,0-.3,0-.5-.1h-.8c-.4,0-.8.1-1.2.3-.4.2-.7.5-.9.9-.3.5-.4,1-.4,1.5v5.1h-2.9Z"/>
  <path class="st0" d="M442.4,165.2c-.5,0-.9,0-1.3-.4-.3-.3-.5-.7-.4-1.1,0-.4.1-.8.4-1.1.8-.5,1.8-.5,2.6,0,.3.3.5.7.4,1.1,0,.4-.1.8-.4,1.1-.4.3-.8.4-1.3.4h0ZM443.8,166.7v10h-2.8v-10h2.8Z"/>
  <path class="st0" d="M451.2,166.5c.8,0,1.6.1,2.3.4,1.1.4,2,1.4,2.4,2.6l-2.6.9c0-.5-.3-1-.7-1.4-.4-.3-.8-.5-1.3-.5s-.9.1-1.3.4c-.4.3-.7.6-.8,1.1-.2.6-.3,1.2-.3,1.8s0,1.2.3,1.8c.2.4.5.8.9,1s.9.4,1.3.3c.4,0,.7,0,1-.2.3-.1.5-.3.7-.6s.3-.6.4-1l2.5.8c-.1.6-.4,1.1-.8,1.6s-1,.8-1.6,1.1c-1.6.6-3.4.5-5-.2-.8-.4-1.4-1-1.9-1.8-.9-1.8-.9-3.8,0-5.6.4-.8,1.1-1.4,1.8-1.8.8-.4,1.8-.6,2.7-.5v-.2Z"/>
  <path class="st0" d="M459.2,165.2c-.5,0-.9,0-1.3-.4-.3-.3-.5-.7-.4-1.1,0-.4.1-.8.4-1.1.8-.5,1.8-.5,2.6,0,.3.3.5.7.4,1.1,0,.4-.1.8-.4,1.1-.4.3-.8.4-1.3.4h0ZM460.6,166.7v10h-2.8v-10h2.8Z"/>
  <path class="st0" d="M467.2,176.9c-1.6,0-3.1-.9-3.8-2.4-.4-.9-.6-1.8-.6-2.8s.2-1.9.6-2.8c.7-1.5,2.2-2.4,3.9-2.4s1.6.2,2.2.8c.6.5,1,1.2,1.1,2l-.3.3v-7.2h2.8v14.3h-2.5l-.2-3,.3.2c-.1,1.2-.9,2.2-1.9,2.7-.5.2-1.1.4-1.7.4h.1ZM468,174.8c.5,0,.9-.1,1.3-.4.4-.3.7-.7.8-1.1.2-.5.3-1.1.3-1.7s0-1.1-.3-1.6c-.2-.4-.5-.8-.8-1-1-.6-2.3-.4-3,.4-.5.7-.7,1.5-.6,2.3,0,.8.2,1.6.6,2.3.4.5,1.1.8,1.8.8h0Z"/>
  <path class="st0" d="M481.7,170.3c0-.5-.2-1-.5-1.3-.4-.3-.8-.5-1.3-.5s-.9.1-1.3.4c-.4.3-.7.8-.8,1.3l-2.4-.7c.2-.9.8-1.6,1.5-2.1,1-.6,2.1-.9,3.2-.8.8,0,1.6.1,2.4.4.6.2,1.2.7,1.6,1.2.4.6.6,1.3.6,2.1v4.1c0,.5.2.8.7.8s.4,0,.6-.1l-.2,1.7c-.4.2-.9.3-1.3.3s-.9,0-1.3-.2c-.4-.1-.7-.4-.9-.7-.2-.4-.3-.8-.3-1.2h0l.5-.2c0,.5-.3.9-.7,1.3-.4.4-.8.6-1.3.8s-1.1.3-1.6.3-1.2,0-1.8-.3c-.5-.2-.9-.5-1.2-.9-.3-.4-.4-1-.4-1.5s.2-1.4.7-1.8c.6-.5,1.3-.9,2.1-1l3.9-.8v1.7l-2.5.5c-.4,0-.7.2-1.1.4-.2.2-.4.5-.4.8s.1.6.4.8.6.3.9.3.6,0,.8-.1c.3,0,.5-.2.7-.3.2-.2.4-.4.5-.6.1-.3.2-.6.2-.9v-3.2Z"/>
  <path class="st0" d="M491.2,176.9c-.8,0-1.6-.2-2.3-.6-.7-.4-1.2-1-1.6-1.8-.4-.9-.6-1.8-.6-2.8s.2-1.9.6-2.8c.7-1.5,2.2-2.4,3.9-2.4s1.6.2,2.2.8c.6.5,1,1.2,1.1,2l-.3.3v-7.2h2.8v14.3h-2.5l-.2-3,.3.2c-.1,1.2-.9,2.2-1.9,2.7-.5.2-1.1.4-1.7.4h.2ZM492,174.8c.5,0,.9-.1,1.3-.4.4-.3.7-.7.8-1.1.2-.5.3-1.1.3-1.7s0-1.1-.3-1.6c-.2-.4-.5-.8-.8-1-.4-.2-.8-.4-1.2-.4-.7,0-1.4.3-1.8.8-.5.7-.7,1.5-.6,2.3,0,.8.2,1.6.6,2.3.4.5,1.1.8,1.8.8h0Z"/>
  <path class="st0" d="M43.4,198.7v-13.2h10.1v2.2h-7.3v3.3h5.8v2.1h-5.8v3.4h7.6v2.2h-10.4Z"/>
  <path class="st0" d="M58.6,184.3v11.3c0,.4,0,.7.2,1,.2.2.5.3.8.3h1.2c0-.1-.2,1.7-.2,1.7-.3.1-.6.3-.9.3s-.7.1-1,.1c-.8,0-1.6-.2-2.2-.7-.5-.6-.8-1.5-.7-2.3v-11.6h2.8Z"/>
  <path class="st0" d="M66.8,198.9c-1,0-1.9-.2-2.8-.6-.8-.4-1.5-1-1.9-1.8-.9-1.8-.9-3.8,0-5.6s1.1-1.4,1.8-1.8c.8-.4,1.8-.6,2.7-.6s1.8.2,2.6.6c.7.4,1.3,1,1.7,1.7.4.7.6,1.6.6,2.4v1.4h-8.2v-1.9h7l-1.3.5c0-.7-.2-1.4-.6-1.9s-1-.7-1.7-.7-.9.1-1.3.4c-.4.3-.7.6-.8,1.1-.2.6-.3,1.2-.3,1.8s0,1.2.3,1.8.5.8.9,1c.9.5,2,.5,2.9,0,.4-.2.7-.6.9-.9l2.2.8c-.2.5-.6,1-1,1.3-.5.4-1,.7-1.6.9s-1.3.3-2,.3v-.2Z"/>
  <path class="st0" d="M78.3,188.5c.8,0,1.6.1,2.3.4,1.1.4,2,1.4,2.4,2.6l-2.6.9c0-.5-.3-1-.7-1.4-.4-.3-.8-.5-1.3-.5s-.9.1-1.3.4c-.4.3-.7.6-.8,1.1-.2.6-.3,1.2-.3,1.8s0,1.2.3,1.8.5.8.9,1,.9.4,1.3.3c.3,0,.7,0,1-.2.3-.1.5-.3.7-.6s.3-.6.4-1l2.5.8c0,.6-.4,1.1-.8,1.6s-1,.8-1.6,1.1c-.7.3-1.5.4-2.2.4-1,0-1.9-.2-2.8-.6-.8-.4-1.4-1-1.9-1.8-.9-1.8-.9-3.8,0-5.6s1.1-1.4,1.8-1.8c.9-.4,1.8-.6,2.8-.5v-.2Z"/>
  <path class="st0" d="M91.9,188.7v2h-8v-2h8ZM88.6,185.7v9.8c0,.4,0,.8.4,1.1.3.2.6.3,1,.3s.6,0,.9-.1c.2,0,.5-.2.7-.4l.5,1.8c-.4.3-.8.5-1.2.6-.5.1-1,.2-1.6.2s-1.2,0-1.8-.3c-.5-.2-.9-.5-1.2-1-.3-.5-.5-1.1-.4-1.8v-9.5l2.8-.7h-.1Z"/>
  <path class="st0" d="M93.5,198.7v-10h2.4l.2,2c.2-.6.6-1.2,1.2-1.6.6-.4,1.3-.6,2-.6h.6c.2,0,.3,0,.5.2l-.3,2.3c-.2,0-.3,0-.5-.1h-.8c-.4,0-.8.1-1.2.3-.4.2-.7.5-.9.9-.3.5-.4,1-.4,1.5v5.1h-2.8,0Z"/>
  <path class="st0" d="M106.3,188.5c1,0,1.9.2,2.7.6.8.4,1.4,1,1.8,1.8.9,1.8.9,3.8,0,5.6s-1.1,1.4-1.8,1.8c-1.7.8-3.7.8-5.5,0-.8-.4-1.4-1-1.8-1.8-.9-1.8-.9-3.8,0-5.6s1.1-1.4,1.8-1.8c.8-.4,1.8-.6,2.7-.6h.1ZM106.3,190.5c-.5,0-.9.1-1.3.4-.4.3-.7.6-.8,1.1-.4,1.1-.4,2.4,0,3.5.2.4.5.8.8,1,.4.2.9.4,1.3.4s.9-.1,1.3-.4c.4-.2.7-.6.8-1,.4-1.1.4-2.4,0-3.5-.2-.4-.4-.8-.8-1.1-.4-.2-.8-.3-1.3-.3h0ZM106.4,183.8h2.7l-2,3.4h-2.1l1.3-3.4h0Z"/>
  <path class="st0" d="M113.6,198.7v-10h2.5l.2,3-.4-.3c0-.6.4-1.1.8-1.6.3-.4.8-.8,1.3-1s1.1-.3,1.7-.3,1.3.1,1.9.4c.5.3,1,.7,1.3,1.2.3.6.5,1.3.5,2v6.6h-2.8v-5.8c0-.6,0-1.3-.5-1.8-.4-.3-.8-.5-1.3-.5s-.8,0-1.1.3c-.4.2-.7.5-.9.9-.3.5-.4,1-.3,1.6v5.3h-2.9Z"/>
  <path class="st0" d="M127.5,187.2c-.5,0-.9,0-1.3-.4-.3-.3-.5-.7-.4-1.1,0-.4,0-.8.4-1.1.8-.5,1.8-.5,2.6,0,.3.3.5.7.4,1.1,0,.4-.1.8-.4,1.1-.4.3-.8.4-1.3.4ZM128.9,188.7v10h-2.8v-10h2.8Z"/>
  <path class="st0" d="M136.2,188.5c.8,0,1.6.1,2.3.4.6.2,1.1.6,1.5,1.1.4.4.7.9.8,1.5l-2.6.9c0-.5-.3-1-.7-1.4-.4-.3-.9-.5-1.3-.5s-.9.1-1.3.4c-.4.3-.7.6-.8,1.1-.2.6-.3,1.2-.3,1.8s0,1.2.3,1.8.5.8.9,1,.9.4,1.3.3c.4,0,.7,0,1.1-.2.3-.1.5-.3.7-.6s.3-.6.4-1l2.5.8c-.1.6-.4,1.1-.8,1.6-.4.5-1,.8-1.6,1.1-.7.3-1.5.4-2.2.4-1,0-1.9-.2-2.8-.6-.8-.4-1.4-1-1.9-1.8-.9-1.8-.9-3.8,0-5.6.4-.8,1.1-1.4,1.8-1.8.9-.4,1.8-.6,2.7-.5v-.2Z"/>
  <path class="st0" d="M148.7,192.3c0-.5-.2-1-.5-1.3-.4-.3-.8-.5-1.3-.5s-.9.1-1.3.4c-.4.3-.7.8-.8,1.3l-2.4-.7c.2-.9.8-1.6,1.5-2.1,1-.6,2.1-.9,3.2-.8.8,0,1.6.1,2.4.4.6.2,1.2.7,1.6,1.2.4.6.6,1.3.6,2.1v4.1c0,.4.2.7.5.8h.2c.2,0,.4,0,.7-.1l-.2,1.7c-.4.2-.9.3-1.3.3s-.8,0-1.2-.2c-.4-.1-.7-.4-.9-.7-.2-.4-.3-.8-.3-1.2h0l.5-.2c0,.5-.3.9-.7,1.3-.4.4-.8.6-1.3.8-1.1.4-2.3.4-3.4,0-.5-.2-.9-.5-1.2-.9s-.4-1-.4-1.5.2-1.4.7-1.8c.6-.5,1.3-.9,2.1-1l3.9-.8v1.7l-2.5.5c-.4,0-.7.2-1.1.4-.2.2-.4.5-.4.8s.1.6.4.8c.3.2.6.3.9.3s.6,0,.8-.1c.3,0,.5-.2.7-.3.2-.2.4-.4.5-.6.1-.3.2-.6.2-.9v-2.7l-.2-.5Z"/>
  <path class="st0" d="M169.3,188.7l-4.1,10.6c-.3.8-.6,1.5-1.1,2.2-.4.5-.8.9-1.4,1.2-.6.3-1.2.4-1.9.4s-1,0-1.5-.2c-.4-.1-.8-.3-1.2-.5l.6-2c.2.2.5.3.8.4.3,0,.7.1,1,.1s.7,0,1-.2.6-.6.7-1l.4-.9-1.1-2.6-3.2-7.5h3.1l2,6,.5,2,.6-2.1,1.9-5.9h2.9Z"/>
  <path class="st0" d="M186.7,185.5v2.2h-4.6v11h-2.8v-11h-4.6v-2.2h12Z"/>
  <path class="st0" d="M191.2,198.9c-1,0-1.9-.2-2.8-.6-.8-.4-1.4-1-1.9-1.8-.9-1.8-.9-3.8,0-5.6.4-.8,1.1-1.4,1.8-1.8.8-.4,1.8-.6,2.7-.6s1.8.2,2.6.6c.7.4,1.3,1,1.7,1.7s.6,1.6.6,2.4v1.4h-8.2v-1.9h6.9l-1.4.5c0-.7-.2-1.4-.6-1.9-.4-.5-1-.7-1.7-.7s-.9.1-1.3.4c-.4.3-.7.6-.9,1.1-.2.6-.3,1.2-.3,1.8s0,1.2.3,1.8.5.8.9,1c.9.5,2,.5,2.9,0,.4-.2.7-.6.9-.9l2.2.8c-.2.5-.6,1-1,1.3-.5.4-1,.7-1.6.9s-1.3.3-2,.3l.2-.2Z"/>
  <path class="st0" d="M200.8,184.3v11.3c0,.4,0,.7.2,1,.2.2.5.3.8.3h1.2c0-.1-.2,1.7-.2,1.7-.3.1-.6.3-.9.3s-.7.1-1,.1c-.8,0-1.6-.2-2.2-.7-.5-.6-.8-1.5-.7-2.3v-11.6h2.8,0Z"/>
  <path class="st0" d="M209,198.9c-1,0-1.9-.2-2.8-.6-.8-.4-1.4-1-1.9-1.8-.9-1.8-.9-3.8,0-5.6.4-.8,1.1-1.4,1.8-1.8.8-.4,1.8-.6,2.7-.6s1.8.2,2.6.6c.7.4,1.3,1,1.7,1.7s.6,1.6.6,2.4v1.4h-8.2v-1.9h7l-1.4.5c0-.7-.2-1.4-.6-1.9-.4-.5-1-.7-1.6-.7s-.9.1-1.4.4c-.4.3-.7.6-.9,1.1-.2.6-.3,1.2-.3,1.8s0,1.2.3,1.8.5.8.9,1,.9.4,1.4.3c.5,0,1,0,1.5-.3.4-.2.7-.6.9-.9l2.2.8c-.2.5-.6,1-1,1.3-.5.4-1,.7-1.6.9-.7.2-1.3.3-2,.3v-.2Z"/>
  <path class="st0" d="M220.5,188.5c.8,0,1.6.1,2.3.4,1.1.4,2,1.4,2.4,2.6l-2.6.9c0-.5-.3-1-.7-1.4-.4-.3-.8-.5-1.3-.5s-.9.1-1.3.4c-.4.3-.7.6-.8,1.1-.2.6-.3,1.2-.2,1.7,0,.6,0,1.2.3,1.8s.5.8.9,1,.9.4,1.3.3c.3,0,.7,0,1-.2.3-.1.5-.3.7-.6s.3-.6.4-1l2.5.8c-.1.6-.4,1.1-.8,1.6-.4.5-1,.8-1.6,1.1-1.6.6-3.4.5-5-.2-.8-.4-1.4-1-1.9-1.8-.9-1.8-.9-3.8,0-5.6.4-.8,1.1-1.4,1.9-1.8.8-.4,1.8-.6,2.7-.5h-.2Z"/>
  <path class="st0" d="M231.8,188.5c1,0,1.9.2,2.7.6.8.4,1.4,1,1.8,1.8.9,1.8.9,3.8,0,5.6-.4.8-1.1,1.4-1.8,1.8-1.7.8-3.7.8-5.5,0-.8-.4-1.4-1-1.9-1.8-.9-1.8-.9-3.8,0-5.6.4-.8,1.1-1.4,1.9-1.8.8-.4,1.8-.6,2.7-.6h.1ZM231.8,190.5c-.5,0-.9.1-1.3.4-.4.3-.7.6-.8,1.1-.4,1.1-.4,2.4,0,3.5.2.4.5.8.8,1,.4.2.9.4,1.3.4s.9-.1,1.3-.4c.4-.2.7-.6.8-1,.4-1.1.4-2.4,0-3.5-.2-.4-.4-.8-.8-1.1-.4-.2-.8-.3-1.3-.3h0Z"/>
  <path class="st0" d="M239.1,198.7v-10h2.5v1.8c.4-.6.9-1.2,1.5-1.5s1.3-.5,2-.5,1.4.2,2,.5,1.1.9,1.3,1.5c.2-.4.5-.8.9-1.1s.8-.5,1.2-.7c.4-.1.9-.2,1.4-.2s1.3.1,1.8.4c.6.3,1,.7,1.3,1.2.3.6.5,1.3.5,2v6.6h-2.8v-6c0-.6-.1-1.1-.5-1.6-.3-.3-.8-.5-1.3-.5s-.8.1-1.1.3c-.4.2-.6.5-.8.9-.2.5-.3,1-.3,1.5v5.4h-2.8v-6c0-.6-.1-1.1-.5-1.6-.4-.3-.8-.5-1.3-.5s-.7,0-1,.3c-.4.2-.7.5-.9.9-.2.5-.4,1-.3,1.6v5.3h-2.8,0Z"/>
  <path class="st0" d="M261.8,198.9c-.6,0-1.3-.1-1.8-.4-.5-.2-1-.6-1.3-1.1-.3-.6-.5-1.3-.5-2v-6.7h2.8v6c0,.6.1,1.2.5,1.6.4.3.9.5,1.4.4.3,0,.6,0,.8-.1.3-.1.5-.3.7-.5s.4-.5.5-.8c.1-.4.2-.8.2-1.2v-5.4h2.8v10h-2.5v-1.7c-.4.6-.9,1.1-1.5,1.5-.7.3-1.4.5-2.1.5h0Z"/>
  <path class="st0" d="M270.6,198.7v-10h2.5l.2,3-.4-.3c.1-.6.4-1.1.8-1.6.3-.4.8-.8,1.3-1s1.1-.3,1.7-.3,1.3.1,1.9.4c.5.3,1,.7,1.3,1.2.3.6.5,1.3.5,2v6.6h-2.8v-5.8c0-.6-.1-1.3-.5-1.8-.4-.3-.8-.5-1.3-.5s-.8,0-1.1.3c-.4.2-.7.5-.9.9-.3.5-.4,1-.3,1.6v5.3h-2.9Z"/>
  <path class="st0" d="M284.4,187.2c-.5,0-.9,0-1.3-.4-.3-.3-.5-.7-.4-1.1,0-.4.1-.8.4-1.1.8-.5,1.8-.5,2.6,0,.3.3.5.7.4,1.1,0,.4-.1.8-.4,1.1-.4.3-.9.4-1.3.4h0ZM285.8,188.7v10h-2.8v-10h2.8Z"/>
  <path class="st0" d="M293.1,188.5c.8,0,1.6.1,2.3.4,1.1.4,2,1.4,2.4,2.6l-2.6.9c0-.5-.3-1-.7-1.4-.4-.3-.9-.5-1.3-.5s-.9.1-1.3.4c-.4.3-.7.6-.8,1.1-.2.6-.3,1.2-.3,1.8s0,1.2.3,1.8c.2.4.5.8.9,1s.9.4,1.3.3c.3,0,.7,0,1-.2.3-.1.5-.3.7-.6s.3-.6.4-1l2.5.8c-.1.6-.4,1.1-.8,1.6s-1,.8-1.6,1.1c-1.6.6-3.4.5-5-.2-.8-.4-1.4-1-1.9-1.8-.9-1.8-.9-3.8,0-5.6.4-.8,1.1-1.4,1.8-1.8.9-.4,1.8-.6,2.8-.5v-.2Z"/>
  <path class="st0" d="M305.6,192.3c0-.5-.2-1-.5-1.3-.4-.3-.8-.5-1.3-.5s-.9.1-1.3.4c-.4.3-.7.8-.8,1.3l-2.4-.7c.2-.9.8-1.6,1.5-2.1,1-.6,2.1-.9,3.2-.8.8,0,1.6.1,2.4.4.6.2,1.2.7,1.6,1.2.4.6.6,1.3.6,2.1v4.1c0,.4.2.7.5.8h.2c.2,0,.4,0,.7-.1l-.2,1.7c-.4.2-.9.3-1.3.3s-.9,0-1.3-.2c-.4-.1-.7-.4-.9-.7-.2-.4-.3-.8-.3-1.2h0l.5-.2c0,.5-.3.9-.7,1.3-.4.4-.8.6-1.3.8-1.1.4-2.3.4-3.4,0-.5-.2-.9-.5-1.2-.9-.3-.4-.4-1-.4-1.5s.2-1.4.7-1.8c.6-.5,1.3-.9,2.1-1l3.9-.8v1.7l-2.5.5c-.4,0-.7.2-1.1.4-.2.2-.4.5-.4.8s.1.6.4.8.6.3.9.3.6,0,.8-.1c.3,0,.5-.2.7-.3.2-.2.4-.4.5-.6.1-.3.2-.6.2-.9v-3.2Z"/>
  <path class="st0" d="M315.9,188.5c.8,0,1.6.1,2.3.4,1.1.4,2,1.4,2.4,2.6l-2.6.9c0-.5-.3-1-.7-1.4-.4-.3-.8-.5-1.3-.5s-.9.1-1.3.4c-.4.3-.7.6-.8,1.1-.2.6-.3,1.2-.3,1.8s0,1.2.3,1.8c.2.4.5.8.9,1s.9.4,1.3.3c.3,0,.7,0,1-.2.3-.1.5-.3.7-.6s.3-.6.4-1l2.5.8c-.1.6-.4,1.1-.8,1.6s-1,.8-1.6,1.1c-1.6.6-3.4.5-5-.2-.8-.4-1.4-1-1.9-1.8-.9-1.8-.9-3.8,0-5.6.4-.8,1.1-1.4,1.9-1.8.9-.4,1.8-.6,2.7-.5v-.2Z"/>
  <path class="st0" d="M323.9,187.2c-.5,0-.9,0-1.3-.4-.3-.3-.5-.7-.4-1.1,0-.4.1-.8.4-1.1.8-.5,1.8-.5,2.6,0,.3.3.5.7.4,1.1,0,.4-.1.8-.4,1.1-.4.3-.8.4-1.3.4h0ZM325.3,188.7v10h-2.8v-10h2.8Z"/>
  <path class="st0" d="M332.7,188.5c1,0,1.9.2,2.7.6s1.4,1,1.9,1.8c.9,1.8.9,3.8,0,5.6-.4.8-1.1,1.4-1.9,1.8-1.7.8-3.7.8-5.5,0-.8-.4-1.4-1-1.8-1.8-.9-1.8-.9-3.8,0-5.6.4-.8,1.1-1.4,1.9-1.8.8-.4,1.8-.6,2.7-.6h0ZM332.7,190.5c-.5,0-.9.1-1.3.4-.4.3-.7.6-.8,1.1-.4,1.1-.4,2.4,0,3.5.2.4.5.8.8,1,.8.5,1.8.5,2.6,0,.4-.2.7-.6.8-1,.4-1.1.4-2.4,0-3.5-.2-.4-.4-.8-.8-1.1-.4-.2-.9-.3-1.3-.3h0Z"/>
  <path class="st0" d="M340,198.7v-10h2.5l.2,3-.4-.3c.1-.6.4-1.1.8-1.6.3-.4.8-.8,1.3-1s1.1-.3,1.7-.3,1.3.1,1.9.4c.6.3,1,.7,1.3,1.2.3.6.5,1.3.5,2v6.6h-2.8v-5.8c0-.6-.1-1.3-.5-1.8-.4-.3-.9-.5-1.4-.4-.4,0-.8,0-1.1.3-.4.2-.7.5-.9.9-.2.5-.4,1-.3,1.6v5.3h-2.8Z"/>
  <path class="st0" d="M357.2,198.9c-1,0-1.9-.2-2.8-.6-.8-.4-1.4-1-1.9-1.8-.9-1.8-.9-3.8,0-5.6.4-.8,1.1-1.4,1.8-1.8.8-.4,1.8-.6,2.7-.6s1.8.2,2.6.6c.7.4,1.3,1,1.7,1.7.4.7.6,1.6.6,2.4v1.4h-8.2v-1.9h7l-1.4.5c0-.7-.2-1.4-.6-1.9s-1-.7-1.6-.7-.9.1-1.4.4c-.4.3-.7.6-.9,1.1-.2.6-.3,1.2-.3,1.8s0,1.2.3,1.8c.2.4.5.8.9,1s.9.4,1.4.3c.5,0,1,0,1.5-.3.4-.2.7-.6.9-.9l2.2.8c-.2.5-.6,1-1,1.3-.5.4-1,.7-1.6.9-.7.2-1.3.3-2,.3v-.2Z"/>
  <path class="st0" d="M368.1,198.9c-1,0-1.9-.2-2.8-.5-.8-.3-1.5-.9-2.1-1.5l1.6-1.6c.7,1.1,2,1.7,3.3,1.6.4,0,.9,0,1.3-.2s.6-.6.4-1c0-.1-.1-.2-.2-.3-.3-.2-.6-.3-.9-.4l-1.8-.4c-.9-.1-1.8-.5-2.5-1.1-.5-.5-.8-1.2-.8-1.9s.2-1.1.5-1.5c.4-.5.9-.9,1.5-1.2.8-.3,1.6-.5,2.5-.4.9,0,1.8.1,2.7.5.7.3,1.3.8,1.8,1.4l-1.7,1.6c-.3-.5-.7-.8-1.2-1.1-.5-.2-1-.4-1.5-.4s-.7,0-1,.1c-.2,0-.4.2-.6.3-.1.1-.2.3-.2.5s.1.4.3.6c.3.2.7.3,1,.4l2.1.4c.8.1,1.6.5,2.2,1,.4.5.7,1.1.7,1.7s-.2,1.2-.5,1.7c-.4.5-.9.9-1.5,1.2-.8.3-1.6.5-2.5.4h0Z"/>
  <path class="st0" d="M384.5,198.9c-.8,0-1.6-.2-2.3-.6-.7-.4-1.2-1-1.5-1.8-.4-.9-.6-1.8-.5-2.8,0-1,.2-1.9.6-2.8.4-.7.9-1.4,1.6-1.8.7-.4,1.5-.6,2.3-.6s1.6.2,2.2.8c.6.5,1,1.2,1.1,2l-.3.3v-7.2h2.8v14.4h-2.5l-.2-3,.3.2c0,.6-.3,1.2-.6,1.6-.3.5-.8.8-1.3,1.1-.6.3-1.2.4-1.8.3h0ZM385.3,196.8c.5,0,.9-.1,1.3-.4.4-.3.7-.7.8-1.1.2-.5.3-1.1.3-1.7s0-1.1-.3-1.6c-.2-.4-.5-.8-.8-1-1-.6-2.2-.4-3,.4-.9,1.4-.9,3.2,0,4.6.4.5,1.1.8,1.7.8Z"/>
  <path class="st0" d="M397.9,198.9c-1,0-1.9-.2-2.8-.6-.8-.4-1.4-1-1.9-1.8-.9-1.8-.9-3.8,0-5.6.4-.8,1.1-1.4,1.8-1.8.8-.4,1.8-.6,2.7-.6s1.8.2,2.6.6c.7.4,1.3,1,1.7,1.7.4.7.6,1.6.6,2.4v1.4h-8.2v-1.9h7l-1.4.5c0-.7-.2-1.4-.6-1.9s-1-.7-1.6-.7-.9.1-1.3.4c-.4.3-.7.6-.9,1.1-.2.6-.3,1.2-.3,1.8s0,1.2.3,1.8c.2.4.5.8.9,1,.9.5,2,.5,2.9,0,.4-.2.7-.6.9-.9l2.2.8c-.2.5-.6,1-1,1.3-.5.4-1,.7-1.6.9-.7.2-1.3.3-2,.3v-.2Z"/>
  <path class="st0" d="M407.5,184.3v11.3c0,.4,0,.7.2,1,.2.2.5.3.8.3h.6c.1,0,.4,0,.6-.1l-.2,1.8c-.3.1-.6.3-.9.3s-.7.1-1,.1c-.8,0-1.6-.2-2.2-.7-.5-.6-.8-1.5-.7-2.3v-11.6h2.8Z"/>
  <path class="st0" d="M421.8,185.3c1.1,0,2.2.2,3.2.6.9.4,1.7,1,2.4,1.8l-1.6,1.8c-.5-.6-1.1-1.2-1.8-1.5-.7-.3-1.5-.5-2.3-.5s-1,0-1.4.2c-.3.1-.6.3-.8.6-.2.2-.3.5-.3.8s.2.7.4.9c.4.3,1,.6,1.5.7l2.5.6c1.1.2,2.1.6,2.9,1.3.6.6.9,1.4.9,2.2s-.2,1.6-.7,2.2c-.5.7-1.2,1.1-2,1.4-.9.3-1.9.5-2.9.5s-1.8-.1-2.6-.3c-.7-.2-1.5-.5-2.1-.9s-1.1-.8-1.5-1.3l1.6-1.9c.3.4.7.8,1.2,1.1s1,.6,1.6.8,1.2.3,1.9.3,1,0,1.4-.2c.3,0,.6-.3.9-.5.2-.2.3-.5.3-.9s-.1-.7-.4-.9c-.4-.3-.8-.5-1.3-.6l-2.8-.6c-.7-.2-1.4-.4-2-.7-.5-.3-1-.7-1.3-1.2s-.5-1.1-.4-1.7c0-.8.2-1.5.7-2.1.5-.7,1.1-1.2,1.9-1.5.9-.4,2-.6,3-.6h-.1Z"/>
  <path class="st0" d="M429.8,198.7v-13.2h10.1v2.2h-7.3v3.3h5.8v2.1h-5.8v3.4h7.6v2.2h-10.4Z"/>
  <path class="st0" d="M454.1,185.5v13.2h-3.2l-4.8-7.8-1.2-2.2h0v9.9h-2.5v-13.2h3.2l4.7,7.7,1.2,2.2h0v-9.9h2.6,0Z"/>
  <path class="st0" d="M455.8,198.7l5-13.2h3.4l5,13.2h-3l-3.1-9-.6-2h0l-.6,2-3.1,9h-3ZM458.7,195.4v-2h7.4v2h-7.4Z"/>
</svg>